<svg width="12" height="12" viewBox="0 0 12 12" fill="none" xmlns="http://www.w3.org/2000/svg">
<path fill-rule="evenodd" clip-rule="evenodd" d="M3.14645 6.85355C2.95118 6.65829 2.95118 6.34171 3.14645 6.14645L5.64645 3.64645C5.84171 3.45118 6.15829 3.45118 6.35355 3.64645L8.85355 6.14645C9.04882 6.34171 9.04882 6.65829 8.85355 6.85355C8.65829 7.04882 8.34171 7.04882 8.14645 6.85355L6.5 5.20711L6.5 10C6.5 10.2761 6.27614 10.5 6 10.5C5.72386 10.5 5.5 10.2761 5.5 10L5.5 5.20711L3.85355 6.85355C3.65829 7.04882 3.34171 7.04882 3.14645 6.85355Z" fill="#141414"/>
<path fill-rule="evenodd" clip-rule="evenodd" d="M2.5 2C2.5 1.72386 2.72386 1.5 3 1.5L9 1.5C9.27614 1.5 9.5 1.72386 9.5 2C9.5 2.27614 9.27614 2.5 9 2.5L3 2.5C2.72386 2.5 2.5 2.27614 2.5 2Z" fill="#141414"/>
</svg>
