<svg width="24" height="24" viewBox="0 0 24 24" fill="none" xmlns="http://www.w3.org/2000/svg">
<path fill-rule="evenodd" clip-rule="evenodd" d="M17.1221 6.75578C17.5127 7.14631 17.5127 7.77947 17.1221 8.17L7.12215 18.17C6.73162 18.5605 6.09846 18.5605 5.70793 18.17C5.31741 17.7795 5.31741 17.1463 5.70793 16.7558L15.7079 6.75578C16.0985 6.36526 16.7316 6.36526 17.1221 6.75578Z" fill="white"/>
<path fill-rule="evenodd" clip-rule="evenodd" d="M6.58496 6.53711C6.58496 5.98482 7.03268 5.53711 7.58496 5.53711H17.585C18.1372 5.53711 18.585 5.98482 18.585 6.53711V16.5371C18.585 17.0894 18.1372 17.5371 17.585 17.5371C17.0327 17.5371 16.585 17.0894 16.585 16.5371V7.53711H7.58496C7.03268 7.53711 6.58496 7.08939 6.58496 6.53711Z" fill="white"/>
</svg>
