<svg width="24" height="24" viewBox="0 0 24 24" fill="none" xmlns="http://www.w3.org/2000/svg">
<g clip-path="url(#clip0_3228_8497)">
<path d="M6.95472 4.00009C7.60673 4.00009 8.25873 4.06228 8.87969 4.18667C9.4075 4.31105 9.90427 4.52872 10.37 4.83968C10.7736 5.15065 11.1151 5.5549 11.3325 6.02134C11.5809 6.61217 11.705 7.23409 11.674 7.85601C11.705 8.54013 11.5188 9.22424 11.1772 9.81507C10.8047 10.3748 10.2768 10.8101 9.68693 11.09C10.5252 11.3077 11.2393 11.8363 11.705 12.5204C12.1708 13.2667 12.3881 14.1374 12.3881 15.0081C12.3881 15.7233 12.2639 16.4074 11.9534 17.0294C11.674 17.5891 11.2704 18.0555 10.8047 18.4598C10.3079 18.8329 9.71798 19.1128 9.12807 19.2683C8.50711 19.4549 7.85511 19.5171 7.2031 19.5171H0V3.96899H6.95472V4.00009ZM6.52005 10.2815C7.01682 10.3126 7.54463 10.1571 7.94825 9.84616C8.35187 9.50411 8.56921 8.97547 8.50711 8.41574C8.50711 8.10478 8.44502 7.79382 8.32083 7.51395C8.19664 7.29628 8.0414 7.1097 7.82406 6.98532C7.60673 6.86093 7.35834 6.73655 7.10996 6.70545C6.83053 6.64326 6.5511 6.64326 6.27167 6.64326H3.22898V10.2815H6.52005ZM6.70634 16.9361C7.01682 16.9361 7.3273 16.905 7.60673 16.8428C7.88616 16.7806 8.13454 16.6562 8.38292 16.5007C8.60026 16.3453 8.78654 16.1276 8.91074 15.8788C9.06598 15.5679 9.12807 15.2258 9.09702 14.8837C9.15912 14.2307 8.91074 13.6088 8.44502 13.1735C7.94825 12.8003 7.35834 12.6448 6.73739 12.6759H3.22898V16.9672H6.70634V16.9361Z" fill="white"/>
<path d="M16.9833 16.874C17.5111 17.3404 18.1942 17.5892 18.8772 17.5581C19.4361 17.5581 19.9639 17.4026 20.3986 17.0916C20.7711 16.8429 21.0195 16.5008 21.1747 16.0966H23.7517C23.4723 17.2471 22.7892 18.2733 21.8578 18.9885C20.9574 19.6104 19.8707 19.8903 18.753 19.8592C17.9768 19.8592 17.2006 19.7348 16.4555 19.4239C15.8035 19.144 15.2136 18.7397 14.7478 18.2111C14.2821 17.6514 13.9095 17.0295 13.6612 16.3453C13.3817 15.5679 13.2575 14.7594 13.2886 13.9509C13.2886 13.1424 13.4128 12.365 13.6922 11.5876C14.4374 9.4109 16.4865 7.94938 18.7841 7.98048C19.6224 7.94938 20.4296 8.16705 21.1747 8.54021C21.8268 8.91336 22.4167 9.4109 22.8513 10.0328C23.286 10.6858 23.6275 11.4011 23.7828 12.1785C23.9691 12.987 24.0312 13.8576 24.0001 14.6972H16.3002C16.2071 15.4746 16.4555 16.252 16.9833 16.874ZM20.3365 10.9346C19.9018 10.4993 19.3119 10.2816 18.6909 10.3127C18.2873 10.3127 17.8837 10.3749 17.5421 10.5615C17.2627 10.7169 17.0143 10.9346 16.797 11.1834C16.6107 11.4321 16.4865 11.6809 16.3934 11.9919C16.3313 12.2406 16.2692 12.4894 16.2692 12.7382H21.0506C20.9885 12.0852 20.7401 11.4632 20.3365 10.9346Z" fill="white"/>
<path d="M21.6094 5.02637H15.6482V6.55008H21.6094V5.02637Z" fill="white"/>
</g>
<defs>
<clipPath id="clip0_3228_8497">
<rect width="24" height="24" fill="white"/>
</clipPath>
</defs>
</svg>
