<svg width="16" height="16" viewBox="0 0 16 16" fill="none" xmlns="http://www.w3.org/2000/svg">
<path d="M0.5 7.625V8.375C0.5 10.8406 0.5 12.0734 1.18097 12.9032C1.30563 13.0551 1.44492 13.1944 1.59682 13.319C2.42658 14 3.65939 14 6.125 14C8.59061 14 9.82342 14 10.6532 13.319C10.8051 13.1944 10.9444 13.0551 11.069 12.9032C11.5952 12.262 11.7148 11.3802 11.742 9.875L12.2438 10.1219C13.7032 10.8516 14.4329 11.2164 14.9664 10.8867C15.5 10.5569 15.5 9.7411 15.5 8.10942V7.89058C15.5 6.2589 15.5 5.44306 14.9664 5.11331C14.4329 4.78355 13.7032 5.14841 12.2438 5.87812L11.742 6.12502C11.7148 4.61977 11.5952 3.73798 11.069 3.09682C10.9444 2.94492 10.8051 2.80563 10.6532 2.68097C9.82342 2 8.59061 2 6.125 2C3.65939 2 2.42658 2 1.59682 2.68097C1.44492 2.80563 1.30563 2.94492 1.18097 3.09682C0.5 3.92658 0.5 5.15939 0.5 7.625Z" fill="#141414"/>
</svg>
