<svg width="28" height="28" viewBox="0 0 28 28" fill="none" xmlns="http://www.w3.org/2000/svg">
<path fill-rule="evenodd" clip-rule="evenodd" d="M7.10813 3.55762C7.12331 3.55762 7.13854 3.55762 7.15381 3.55762L17.9687 3.55762C18.4371 3.55757 18.8609 3.55753 19.2047 3.60374C19.5811 3.65435 19.9715 3.77243 20.2918 4.09272C20.6121 4.41301 20.7302 4.80343 20.7808 5.17986C20.827 5.52357 20.8269 5.94745 20.8269 6.4158V6.50714C20.8269 6.97549 20.827 7.39937 20.7808 7.74308C20.7302 8.11951 20.6121 8.50993 20.2918 8.83022C19.9715 9.15051 19.5811 9.26859 19.2047 9.3192C18.8609 9.36541 18.4371 9.36537 17.9687 9.36532L7.15381 9.36532C7.13854 9.36532 7.12331 9.36532 7.10814 9.36532C6.63979 9.36537 6.21591 9.36541 5.8722 9.3192C5.49577 9.26859 5.10534 9.15051 4.78506 8.83022C4.46477 8.50993 4.34669 8.11951 4.29608 7.74308C4.24987 7.39937 4.24991 6.97549 4.24996 6.50715C4.24996 6.49197 4.24996 6.47674 4.24996 6.46147C4.24996 6.4462 4.24996 6.43098 4.24996 6.4158C4.24991 5.94745 4.24987 5.52357 4.29608 5.17986C4.34669 4.80343 4.46477 4.41301 4.78506 4.09272C5.10535 3.77243 5.49577 3.65435 5.8722 3.60374C6.21591 3.55753 6.63979 3.55757 7.10813 3.55762ZM5.84572 5.15338C5.84228 5.15681 5.83606 5.16301 5.82663 5.18594C5.8145 5.21542 5.79709 5.2727 5.7827 5.37973C5.75156 5.6114 5.74996 5.9326 5.74996 6.46147C5.74996 6.99034 5.75156 7.31154 5.7827 7.54321C5.79709 7.65024 5.8145 7.70752 5.82663 7.737C5.83606 7.75993 5.84203 7.76589 5.84547 7.76932C5.8489 7.77275 5.85535 7.77922 5.87828 7.78865C5.90776 7.80078 5.96504 7.81819 6.07207 7.83258C6.30374 7.86372 6.62494 7.86532 7.15381 7.86532L17.923 7.86532C18.4519 7.86532 18.7731 7.86372 19.0048 7.83258C19.1118 7.81819 19.1691 7.80078 19.1986 7.78865C19.2215 7.77922 19.2275 7.77325 19.2309 7.76981C19.2343 7.76638 19.2408 7.75993 19.2502 7.737C19.2624 7.70752 19.2798 7.65024 19.2941 7.54321C19.3253 7.31154 19.3269 6.99034 19.3269 6.46147C19.3269 5.9326 19.3253 5.6114 19.2941 5.37973C19.2798 5.2727 19.2624 5.21542 19.2502 5.18594C19.2408 5.16301 19.2348 5.15705 19.2314 5.15362C19.228 5.15019 19.2215 5.14372 19.1986 5.13429C19.1691 5.12216 19.1118 5.10475 19.0048 5.09036C18.7731 5.05922 18.4519 5.05762 17.923 5.05762L7.15381 5.05762C6.62494 5.05762 6.30374 5.05922 6.07207 5.09036C5.96504 5.10475 5.90776 5.12216 5.87828 5.13429C5.85535 5.14372 5.84915 5.14994 5.84572 5.15338ZM2.15381 3.55764C2.56802 3.55764 2.90381 3.89342 2.90381 4.30764L2.90381 23.6923C2.90381 24.1065 2.56802 24.4423 2.15381 24.4423C1.73959 24.4423 1.40381 24.1065 1.40381 23.6923L1.40381 4.30764C1.40381 3.89342 1.7396 3.55764 2.15381 3.55764ZM11.9803 10.8653C11.9959 10.8653 12.0115 10.8653 12.0271 10.8653L25.2504 10.8653C25.6878 10.8652 26.0922 10.8652 26.4218 10.9123C26.7896 10.9648 27.1712 11.0886 27.48 11.4167C27.7827 11.7383 27.8911 12.1248 27.9377 12.4933C27.9808 12.8341 27.9808 13.2553 27.9807 13.7254V13.8129C27.9808 14.283 27.9808 14.7042 27.9377 15.045C27.8911 15.4134 27.7827 15.7999 27.48 16.1216C27.1712 16.4497 26.7896 16.5735 26.4218 16.626C26.0922 16.6731 25.6878 16.6731 25.2504 16.673L11.9803 16.673C11.5429 16.6731 11.1385 16.6731 10.8089 16.626C10.4411 16.5735 10.0595 16.4497 9.75068 16.1216C9.44795 15.7999 9.33963 15.4134 9.293 15.045C9.24988 14.7042 9.24992 14.283 9.24996 13.8129V13.7254C9.24992 13.2553 9.24988 12.8341 9.293 12.4933C9.33963 12.1248 9.44796 11.7383 9.75068 11.4167C10.0595 11.0886 10.4411 10.9648 10.8089 10.9123C11.1385 10.8652 11.5429 10.8652 11.9803 10.8653ZM10.843 12.4447C10.8411 12.4467 10.8345 12.4535 10.8246 12.4791C10.812 12.5116 10.795 12.5721 10.7811 12.6816C10.7514 12.9168 10.75 13.2415 10.75 13.7691C10.75 14.2968 10.7514 14.6215 10.7811 14.8567C10.795 14.9662 10.812 15.0267 10.8246 15.0592C10.835 15.0861 10.8415 15.092 10.843 15.0935C10.8429 15.0934 10.8431 15.0937 10.843 15.0935C10.8439 15.0947 10.846 15.0973 10.8584 15.1027C10.8786 15.1115 10.9252 15.1274 11.021 15.1411C11.2317 15.1712 11.5268 15.173 12.0271 15.173L25.2036 15.173C25.7039 15.173 25.999 15.1712 26.2097 15.1411C26.3055 15.1274 26.3521 15.1115 26.3722 15.1027C26.3847 15.0973 26.3864 15.0951 26.3874 15.0939C26.3873 15.0941 26.3875 15.0938 26.3874 15.0939C26.3892 15.092 26.3962 15.0848 26.4061 15.0592C26.4187 15.0267 26.4357 14.9662 26.4496 14.8567C26.4793 14.6215 26.4807 14.2968 26.4807 13.7691C26.4807 13.2415 26.4793 12.9168 26.4496 12.6816C26.4357 12.5721 26.4187 12.5116 26.4061 12.4791C26.3962 12.4535 26.3898 12.4469 26.388 12.445C26.3879 12.4449 26.3881 12.4452 26.388 12.445C26.387 12.4438 26.3847 12.441 26.3722 12.4356C26.3521 12.4268 26.3055 12.4109 26.2097 12.3972C25.999 12.3671 25.7039 12.3653 25.2036 12.3653H12.0271C11.5268 12.3653 11.2317 12.3671 11.021 12.3972C10.9252 12.4109 10.8786 12.4268 10.8584 12.4356C10.846 12.441 10.8439 12.4436 10.843 12.4447ZM12.1087 18.4038H18.6616C19.13 18.4037 19.5539 18.4037 19.8976 18.4499C20.274 18.5005 20.6644 18.6186 20.9847 18.9388C21.305 19.2591 21.4231 19.6496 21.4737 20.026C21.5199 20.3697 21.5198 20.7936 21.5198 21.2619V21.3533C21.5198 21.8216 21.5199 22.2455 21.4737 22.5892C21.4231 22.9656 21.305 23.3561 20.9847 23.6764C20.6644 23.9966 20.274 24.1147 19.8976 24.1653C19.5539 24.2115 19.13 24.2115 18.6616 24.2115H12.1087C11.6404 24.2115 11.2165 24.2115 10.8728 24.1653C10.4964 24.1147 10.1059 23.9966 9.78566 23.6764C9.46537 23.3561 9.34729 22.9656 9.29668 22.5892C9.25047 22.2455 9.25051 21.8216 9.25056 21.3533V21.2619C9.25051 20.7936 9.25047 20.3697 9.29668 20.026C9.34729 19.6496 9.46537 19.2591 9.78566 18.9388C10.1059 18.6186 10.4964 18.5005 10.8728 18.4499C11.2165 18.4037 11.6404 18.4037 12.1087 18.4038ZM10.8463 19.9995C10.8429 20.0029 10.8367 20.0091 10.8272 20.0321C10.8151 20.0616 10.7977 20.1188 10.7833 20.2259C10.7522 20.4575 10.7506 20.7787 10.7506 21.3076C10.7506 21.8365 10.7522 22.1577 10.7833 22.3893C10.7977 22.4964 10.8151 22.5536 10.8272 22.5831C10.8367 22.6061 10.8426 22.612 10.8461 22.6154C10.8495 22.6189 10.856 22.6253 10.8789 22.6348C10.9084 22.6469 10.9656 22.6643 11.0727 22.6787C11.3043 22.7099 11.6255 22.7114 12.1544 22.7114H18.6159C19.1448 22.7114 19.466 22.7099 19.6977 22.6787C19.8047 22.6643 19.862 22.6469 19.8915 22.6348C19.915 22.6251 19.9206 22.6191 19.924 22.6157C19.9275 22.6123 19.9337 22.6061 19.9431 22.5831C19.9553 22.5536 19.9727 22.4964 19.9871 22.3893C20.0182 22.1577 20.0198 21.8365 20.0198 21.3076C20.0198 20.7787 20.0182 20.4575 19.9871 20.2259C19.9727 20.1188 19.9553 20.0616 19.9431 20.0321C19.9335 20.0086 19.9274 20.0029 19.924 19.9995C19.9206 19.9961 19.9144 19.9899 19.8915 19.9804C19.862 19.9683 19.8047 19.9509 19.6977 19.9365C19.466 19.9053 19.1448 19.9038 18.6159 19.9038H12.1544C11.6255 19.9038 11.3043 19.9053 11.0727 19.9365C10.9656 19.9509 10.9084 19.9683 10.8789 19.9804C10.856 19.9899 10.8497 19.9961 10.8463 19.9995Z" fill="#141414"/>
</svg>
