<svg width="24" height="24" viewBox="0 0 24 24" fill="none" xmlns="http://www.w3.org/2000/svg">
<g clip-path="url(#clip0_3228_8494)">
<path fill-rule="evenodd" clip-rule="evenodd" d="M0 11.9978C0 5.37491 5.37101 0 12 0C18.6295 0 24 5.37975 24 12.0022C24 18.6251 18.629 24 12 24L11.0266 23.9567C4.85696 23.4609 0 18.2934 0 11.9978ZM12.2985 22.0492C17.7136 21.8914 22.0533 17.4509 22.0533 12.0022C22.0533 6.45319 17.5528 1.9464 12 1.9464C6.4467 1.9464 1.94675 6.44936 1.94675 11.9978C1.94675 17.5461 6.45079 22.0492 12 22.0492H12.2985Z" fill="white"/>
<path fill-rule="evenodd" clip-rule="evenodd" d="M7.14154 3.20639C7.00807 3.16439 6.86974 3.12085 6.72559 3.07196L7.35109 1.22876C7.40854 1.24826 7.512 1.28124 7.63279 1.31976C7.8498 1.38896 8.12272 1.47599 8.28529 1.53461L8.29402 1.53775L8.30269 1.54106C8.34716 1.55807 8.39482 1.5761 8.44481 1.595C8.69662 1.69024 9.00731 1.80774 9.26677 1.92909L9.27832 1.93448L9.32974 1.96018C9.45184 2.01711 9.63521 2.10451 9.78795 2.1773C9.87367 2.21817 9.94976 2.25443 9.99994 2.27811L10.0231 2.28908L10.0458 2.30125C10.051 2.30409 10.0572 2.30739 10.0642 2.31112C10.1168 2.3393 10.2149 2.3918 10.3091 2.44934L10.3349 2.46512L10.3422 2.47024C10.3528 2.47642 10.3674 2.48468 10.3854 2.49469C10.4011 2.50344 10.4162 2.51176 10.4313 2.52008C10.4343 2.52171 10.4373 2.52334 10.4402 2.52498C10.4485 2.52956 10.458 2.53478 10.4665 2.53952L10.4671 2.53985C10.4714 2.54225 10.4824 2.54839 10.4952 2.55582C10.5066 2.56242 10.5243 2.57251 10.5465 2.58515C10.6141 2.62378 10.7235 2.6862 10.8251 2.74567C10.9297 2.80694 11.0894 2.9013 11.2075 2.98413C11.3341 3.06187 11.4733 3.15827 11.566 3.22245C11.5827 3.23402 11.5978 3.24453 11.6112 3.25371C11.6824 3.29709 11.7522 3.34628 11.8007 3.38106C11.8701 3.43083 11.9457 3.4872 12.0147 3.53903C12.0465 3.56297 12.0756 3.58494 12.1031 3.6057C12.1397 3.63332 12.1735 3.6588 12.2071 3.68397C12.2349 3.70475 12.258 3.72188 12.2767 3.73544C12.2859 3.74215 12.2931 3.7473 12.2985 3.75111C12.3031 3.75437 12.3053 3.75584 12.3054 3.75591L12.3307 3.77282L12.3552 3.79142C13.4295 4.60979 14.3862 5.57125 15.2028 6.64285L15.2035 6.64382L15.2043 6.64484C16.107 7.8358 16.8197 9.15786 17.314 10.5648C18.7867 14.6782 18.3536 19.4303 16.039 23.1815L14.3821 22.1596C16.3768 18.9268 16.7609 14.7929 15.4803 11.2183L15.4792 11.2154L15.4782 11.2124C15.0516 9.99722 14.4355 8.85332 13.6534 7.82132C12.9459 6.89309 12.1196 6.06179 11.195 5.35465C11.1438 5.31917 11.0871 5.27706 11.0408 5.24237C11.0057 5.21612 10.9644 5.185 10.9237 5.15429C10.8964 5.13366 10.8694 5.11326 10.8446 5.09466C10.7778 5.04441 10.7171 4.99922 10.6668 4.96322C10.622 4.93112 10.6033 4.91927 10.6035 4.91909C10.6033 4.91901 10.6035 4.91909 10.6035 4.91909L10.5747 4.90289L10.5409 4.87997C10.4912 4.84622 10.4469 4.81559 10.4064 4.7875C10.3173 4.72585 10.2459 4.67646 10.1735 4.63349L10.1261 4.60532L10.0821 4.57202C10.0849 4.57409 10.0847 4.57397 10.0808 4.57139C10.0736 4.56659 10.0536 4.55327 10.0161 4.52999C9.96664 4.49935 9.90604 4.46316 9.84127 4.42521C9.7494 4.37144 9.66574 4.3237 9.59955 4.28594C9.56869 4.26831 9.54161 4.25286 9.5193 4.24L9.51727 4.23884C9.51386 4.23696 9.50884 4.23415 9.50126 4.22999C9.49894 4.22871 9.49639 4.22732 9.49369 4.22582C9.47865 4.21757 9.45859 4.20651 9.43815 4.19515C9.41422 4.18184 9.3852 4.16549 9.35696 4.14895C9.34151 4.13991 9.31271 4.12296 9.28046 4.10204C9.24082 4.07841 9.1983 4.05557 9.14767 4.02839C9.14692 4.02797 9.14617 4.02756 9.14542 4.02715C9.08486 3.9985 9.00949 3.96257 8.9295 3.9244C8.77897 3.85262 8.61195 3.77301 8.49604 3.7191L8.48355 3.7133L8.43116 3.68711C8.24737 3.6019 8.02732 3.51849 7.78087 3.42504C7.72729 3.40473 7.67246 3.38394 7.61647 3.36256C7.46456 3.30804 7.3068 3.25839 7.14154 3.20639ZM9.5193 4.24C9.52035 4.2406 9.52102 4.24094 9.52102 4.24094L9.5193 4.24ZM9.5193 4.24C9.52035 4.2406 9.52102 4.24094 9.52102 4.24094L9.5193 4.24Z" fill="white"/>
<path fill-rule="evenodd" clip-rule="evenodd" d="M11.2409 7.83875C14.1787 7.30832 16.8897 5.66049 18.744 3.31494L20.2713 4.52188C18.1285 7.23249 15.0005 9.13787 11.5866 9.75422C9.88669 10.0607 8.13998 10.0711 6.43515 9.75853C4.73498 9.45549 3.0944 8.84514 1.6106 7.95407L2.61296 6.28554C3.89157 7.05335 5.30865 7.58094 6.7791 7.84273L6.78165 7.84318L6.7842 7.84367C8.25012 8.11269 9.76133 8.10549 11.2409 7.83875Z" fill="white"/>
<path fill-rule="evenodd" clip-rule="evenodd" d="M6.03979 21.8665C7.7018 13.3858 16.3446 8.70221 23.413 10.6287L22.901 12.5066C16.9008 10.8712 9.39027 14.8926 7.95023 22.2408L6.03979 21.8665Z" fill="white"/>
</g>
<defs>
<clipPath id="clip0_3228_8494">
<rect width="24" height="24" fill="white"/>
</clipPath>
</defs>
</svg>
