<svg width="28" height="28" viewBox="0 0 28 28" fill="none" xmlns="http://www.w3.org/2000/svg">
<rect x="2" y="2" width="24" height="24" rx="12" fill="#FFABE7"/>
<path d="M13.9555 26.999L13.9778 27H14C21.1814 27 27 21.1773 27 14.0022C27 6.82808 21.1824 1 14 1C6.81863 1 1 6.82272 1 13.9978C1 20.8191 6.26178 26.4163 12.9465 26.9535L12.9643 26.9549L12.9822 26.9557L13.9555 26.999ZM23.0533 14.0022C23.0533 18.9037 19.1529 22.8997 14.2835 23.0492H14C9.0029 23.0492 4.94675 18.9936 4.94675 13.9978C4.94675 9.00157 8.99906 4.9464 14 4.9464C19 4.9464 23.0533 9.0049 23.0533 14.0022Z" fill="#BA509A" stroke="#FFABE7" stroke-width="2"/>
<path fill-rule="evenodd" clip-rule="evenodd" d="M9.14154 5.20639C9.00807 5.16439 8.86974 5.12085 8.72559 5.07196L9.35109 3.22876C9.40854 3.24826 9.512 3.28124 9.63279 3.31976C9.8498 3.38896 10.1227 3.47599 10.2853 3.53461L10.294 3.53775L10.3027 3.54106C10.3472 3.55807 10.3948 3.5761 10.4448 3.595C10.6966 3.69024 11.0073 3.80774 11.2668 3.92909L11.2783 3.93448L11.3297 3.96018C11.4518 4.01711 11.6352 4.10451 11.7879 4.1773C11.8737 4.21817 11.9498 4.25443 11.9999 4.27811L12.0231 4.28908L12.0458 4.30125C12.051 4.30409 12.0572 4.30739 12.0642 4.31112C12.1168 4.3393 12.2149 4.3918 12.3091 4.44934L12.3349 4.46512L12.3422 4.47024C12.3528 4.47642 12.3674 4.48468 12.3854 4.49469C12.4011 4.50344 12.4162 4.51176 12.4313 4.52008C12.4343 4.52171 12.4373 4.52334 12.4402 4.52498C12.4485 4.52956 12.458 4.53478 12.4665 4.53952L12.4671 4.53985C12.4714 4.54225 12.4824 4.54839 12.4952 4.55582C12.5066 4.56242 12.5243 4.57251 12.5465 4.58515C12.6141 4.62378 12.7235 4.6862 12.8251 4.74567C12.9297 4.80694 13.0894 4.9013 13.2075 4.98413C13.3341 5.06187 13.4733 5.15827 13.566 5.22245C13.5827 5.23402 13.5978 5.24453 13.6112 5.25371C13.6824 5.29709 13.7522 5.34628 13.8007 5.38106C13.8701 5.43083 13.9457 5.4872 14.0147 5.53903C14.0465 5.56297 14.0756 5.58494 14.1031 5.6057C14.1397 5.63332 14.1735 5.6588 14.2071 5.68397C14.2349 5.70475 14.258 5.72188 14.2767 5.73544C14.2859 5.74215 14.2931 5.7473 14.2985 5.75111C14.3031 5.75437 14.3053 5.75584 14.3054 5.75591L14.3307 5.77282L14.3552 5.79142C15.4295 6.60979 16.3862 7.57125 17.2028 8.64285L17.2035 8.64382L17.2043 8.64484C18.107 9.8358 18.8197 11.1579 19.314 12.5648C20.7867 16.6782 20.3536 21.4303 18.039 25.1815L16.3821 24.1596C18.3768 20.9268 18.7609 16.7929 17.4803 13.2183L17.4792 13.2154L17.4782 13.2124C17.0516 11.9972 16.4355 10.8533 15.6534 9.82132C14.9459 8.89309 14.1196 8.06179 13.195 7.35465C13.1438 7.31917 13.0871 7.27706 13.0408 7.24237C13.0057 7.21612 12.9644 7.185 12.9237 7.15429C12.8964 7.13366 12.8694 7.11326 12.8446 7.09466C12.7778 7.04441 12.7171 6.99922 12.6668 6.96322C12.622 6.93112 12.6033 6.91927 12.6035 6.91909C12.6033 6.91901 12.6035 6.91909 12.6035 6.91909L12.5747 6.90289L12.5409 6.87997C12.4912 6.84622 12.4469 6.81559 12.4064 6.7875C12.3173 6.72585 12.2459 6.67646 12.1735 6.63349L12.1261 6.60532L12.0821 6.57202C12.0849 6.57409 12.0847 6.57397 12.0808 6.57139C12.0736 6.56659 12.0536 6.55327 12.0161 6.52999C11.9666 6.49935 11.906 6.46316 11.8413 6.42521C11.7494 6.37144 11.6657 6.3237 11.5995 6.28594C11.5687 6.26831 11.5416 6.25286 11.5193 6.24L11.5173 6.23884C11.5139 6.23696 11.5088 6.23415 11.5013 6.22999C11.4989 6.22871 11.4964 6.22732 11.4937 6.22582C11.4786 6.21757 11.4586 6.20651 11.4381 6.19515C11.4142 6.18184 11.3852 6.16549 11.357 6.14895C11.3415 6.13991 11.3127 6.12296 11.2805 6.10204C11.2408 6.07841 11.1983 6.05557 11.1477 6.02839C11.1469 6.02797 11.1462 6.02756 11.1454 6.02715C11.0849 5.9985 11.0095 5.96257 10.9295 5.9244C10.779 5.85262 10.6119 5.77301 10.496 5.7191L10.4835 5.7133L10.4312 5.68711C10.2474 5.6019 10.0273 5.51849 9.78087 5.42504C9.72729 5.40473 9.67246 5.38394 9.61647 5.36256C9.46456 5.30804 9.3068 5.25839 9.14154 5.20639ZM11.5193 6.24C11.5203 6.2406 11.521 6.24094 11.521 6.24094L11.5193 6.24ZM11.5193 6.24C11.5203 6.2406 11.521 6.24094 11.521 6.24094L11.5193 6.24Z" fill="#BA509A"/>
<path fill-rule="evenodd" clip-rule="evenodd" d="M13.2409 9.83875C16.1787 9.30832 18.8897 7.66049 20.744 5.31494L22.2713 6.52188C20.1285 9.23249 17.0005 11.1379 13.5866 11.7542C11.8867 12.0607 10.14 12.0711 8.43515 11.7585C6.73498 11.4555 5.0944 10.8451 3.6106 9.95407L4.61296 8.28554C5.89157 9.05335 7.30865 9.58094 8.7791 9.84273L8.78165 9.84318L8.7842 9.84367C10.2501 10.1127 11.7613 10.1055 13.2409 9.83875Z" fill="#BA509A"/>
<path fill-rule="evenodd" clip-rule="evenodd" d="M8.03979 23.8665C9.7018 15.3858 18.3446 10.7022 25.413 12.6287L24.901 14.5066C18.9008 12.8712 11.3903 16.8926 9.95023 24.2408L8.03979 23.8665Z" fill="#BA509A"/>
</svg>
