<svg width="24" height="24" viewBox="0 0 24 24" fill="none" xmlns="http://www.w3.org/2000/svg">
<g clip-path="url(#clip0_3228_8494)">
<path fill-rule="evenodd" clip-rule="evenodd" d="M0 12C0 5.3625 5.3625 0 12 0C18.6375 0 24 5.3625 24 12C24 18.6375 18.6375 24 12 24H11.025V23.9625C4.875 23.475 0 18.3 0 12ZM12.3 22.05C17.7 21.9 22.05 17.4375 22.05 12C22.05 6.45 17.55 1.95 12 1.95C6.45 1.95 1.95 6.45 1.95 12C1.95 17.55 6.45 22.05 12 22.05H12.3Z" fill="white"/>
<path fill-rule="evenodd" clip-rule="evenodd" d="M7.1249 3.22505C6.9749 3.18755 6.8624 3.15005 6.7124 3.07505L7.3499 1.23755C7.4249 1.27505 7.4999 1.27505 7.6499 1.31255C7.8749 1.38755 8.1374 1.46255 8.2874 1.53755C8.3249 1.53755 8.3624 1.57505 8.4374 1.57505C8.6999 1.68755 8.9999 1.80005 9.2624 1.91255L9.2999 1.95005C9.4124 2.02505 9.5999 2.10005 9.7499 2.17505C9.8249 2.21255 9.8999 2.25005 9.9749 2.28755H10.0124H10.0499C10.0874 2.32505 10.1999 2.36255 10.3124 2.43755H10.3499C10.3499 2.43755 10.3874 2.43755 10.3874 2.47505C10.3874 2.47505 10.4249 2.47505 10.4249 2.51255C10.4249 2.51255 10.4249 2.51255 10.4624 2.51255C10.4624 2.51255 10.4624 2.51255 10.4999 2.51255C10.4999 2.51255 10.5374 2.51255 10.5374 2.55005C10.6124 2.58755 10.7249 2.66255 10.7999 2.70005C10.9124 2.77505 11.0624 2.85005 11.1749 2.92505C11.2874 3.00005 11.4374 3.11255 11.5499 3.15005L11.5874 3.18755C11.6624 3.22505 11.7374 3.26255 11.7749 3.30005C11.8499 3.33755 11.9249 3.41255 11.9999 3.45005C12.0374 3.48755 12.0749 3.48755 12.0749 3.52505C12.1124 3.56255 12.1499 3.56255 12.1874 3.60005C12.2249 3.63755 12.2249 3.63755 12.2624 3.63755C12.2624 3.63755 12.2624 3.63755 12.2999 3.63755H12.3374H12.3749C13.4624 4.46255 14.3999 5.40005 15.2249 6.48755C16.1249 7.68755 16.8374 9.00005 17.3249 10.425C18.7874 14.55 18.3749 19.275 16.0499 23.025L14.3999 22.0126C16.3874 18.7875 16.7624 14.6625 15.4874 11.0625C15.0749 9.86255 14.4374 8.70005 13.6499 7.68755C12.9374 6.75005 12.1124 5.92505 11.1749 5.21255C11.1374 5.17505 11.0624 5.13755 11.0249 5.10005C10.9874 5.06255 10.9499 5.02505 10.9124 5.02505C10.8749 4.98755 10.8749 4.98755 10.8374 4.95005C10.7624 4.91255 10.7249 4.83755 10.6499 4.80005C10.6124 4.76255 10.5749 4.76255 10.5749 4.76255H10.5374V4.87505C10.4999 4.83755 10.4249 4.80005 10.3874 4.80005C10.3124 4.72505 10.2374 4.68755 10.1624 4.65005L10.1249 4.61255L10.0874 4.57505C10.0874 4.57505 10.0499 4.57505 10.0124 4.53755C9.9749 4.50005 9.8999 4.46255 9.8249 4.42505C9.7499 4.38755 9.6374 4.31255 9.5999 4.27505C9.5624 4.27505 9.5249 4.23755 9.5249 4.23755L9.4874 4.20005C9.4499 4.20005 9.4499 4.16255 9.4124 4.16255C9.4124 4.16255 9.3749 4.12505 9.3374 4.12505C9.2999 4.08755 9.2624 4.08755 9.1874 4.05005C9.1124 4.01255 9.0374 3.97505 8.9624 3.93755C8.8124 3.86255 8.6624 3.78755 8.5124 3.75005L8.4749 3.71255C8.2874 3.63755 8.0624 3.56255 7.8374 3.45005C7.7249 3.41255 7.6874 3.37505 7.6124 3.37505C7.4624 3.30005 7.3124 3.26255 7.1249 3.22505Z" fill="white"/>
<path fill-rule="evenodd" clip-rule="evenodd" d="M11.25 7.83755C14.175 7.31255 16.9125 5.66255 18.75 3.30005L20.2875 4.50005C18.1125 7.23755 15 9.15005 11.5875 9.75005C9.90005 10.05 8.13755 10.05 6.45005 9.75005C4.76255 9.45005 3.11255 8.85005 1.61255 7.95005L2.62505 6.30005C3.90005 7.05005 5.32505 7.61255 6.78755 7.87505C8.25005 8.10005 9.75005 8.10005 11.25 7.83755Z" fill="white"/>
<path fill-rule="evenodd" clip-rule="evenodd" d="M6.0376 21.8626C7.6876 13.3876 16.3501 8.70011 23.4001 10.6126L22.8751 12.4876C16.8751 10.8376 9.3751 14.8876 7.9126 22.2376L6.0376 21.8626Z" fill="white"/>
</g>
<defs>
<clipPath id="clip0_3228_8494">
<rect width="24" height="24" fill="white"/>
</clipPath>
</defs>
</svg>
