<svg width="14" height="14" viewBox="0 0 14 14" fill="none" xmlns="http://www.w3.org/2000/svg">
<path fill-rule="evenodd" clip-rule="evenodd" d="M3.96997 0.350122L3.9006 0.35011C3.43818 0.349984 3.1161 0.349897 2.83464 0.403001C1.60086 0.635785 0.635785 1.60086 0.403001 2.83464C0.349897 3.1161 0.349984 3.43818 0.35011 3.9006L0.350122 3.96997L0.350122 5.3501H13.6233C13.6145 5.21126 13.6028 5.08015 13.5873 4.95677C13.5213 4.43155 13.377 3.95672 13.0217 3.56175C12.9639 3.49748 12.9028 3.43632 12.8385 3.37852C12.4435 3.02328 11.9687 2.87894 11.4435 2.81291C10.9438 2.75008 10.3173 2.7501 9.56345 2.75012L9.29718 2.75012C8.56828 2.75012 8.32937 2.74433 8.11452 2.68309C7.98532 2.64626 7.8608 2.59468 7.74341 2.52937C7.54818 2.42075 7.37515 2.25591 6.85974 1.7405L6.52959 1.41035L6.50946 1.39021C6.36474 1.24546 6.26247 1.14316 6.15252 1.05201C5.68021 0.660486 5.10081 0.42049 4.48998 0.363371C4.34778 0.350073 4.20313 0.350092 3.99844 0.350119L3.96997 0.350122ZM13.6501 6.6501L0.350122 6.6501L0.350121 8.24725C0.350102 9.33856 0.350087 10.2233 0.443786 10.9202C0.541345 11.6458 0.751075 12.2644 1.24345 12.7568C1.73582 13.2492 2.35443 13.4589 3.08006 13.5565C3.77698 13.6502 4.66166 13.6501 5.75295 13.6501H5.75298H8.24726H8.24729C9.33858 13.6501 10.2233 13.6502 10.9202 13.5565C11.6458 13.4589 12.2644 13.2492 12.7568 12.7568C13.2492 12.2644 13.4589 11.6458 13.5565 10.9202C13.6502 10.2233 13.6501 9.33858 13.6501 8.24729V8.24726V6.83679C13.6501 6.77366 13.6501 6.71143 13.6501 6.6501Z" fill="#1E1E1E"/>
</svg>
