<svg width="14" height="14" viewBox="0 0 14 14" fill="none" xmlns="http://www.w3.org/2000/svg">
<path fill-rule="evenodd" clip-rule="evenodd" d="M0.350098 6.0001C0.350098 5.64111 0.641113 5.3501 1.0001 5.3501L13.0001 5.3501C13.3591 5.3501 13.6501 5.64111 13.6501 6.0001C13.6501 6.35908 13.3591 6.6501 13.0001 6.6501L1.0001 6.6501C0.641113 6.6501 0.350098 6.35908 0.350098 6.0001Z" fill="#1E1E1E"/>
<path fill-rule="evenodd" clip-rule="evenodd" d="M3.9006 0.35011C3.92338 0.350116 3.9465 0.350122 3.96997 0.350122C3.97959 0.350122 3.98907 0.350121 3.99844 0.350119C4.20313 0.350092 4.34778 0.350073 4.48998 0.363371C5.10081 0.42049 5.68021 0.660486 6.15252 1.05201C6.26247 1.14316 6.36474 1.24546 6.50946 1.39021C6.51608 1.39684 6.52279 1.40355 6.52959 1.41035L6.85974 1.7405C7.37515 2.25591 7.54818 2.42075 7.74341 2.52937C7.8608 2.59468 7.98532 2.64626 8.11452 2.68309C8.32937 2.74433 8.56828 2.75012 9.29718 2.75012L9.56345 2.75012C10.3173 2.7501 10.9438 2.75008 11.4435 2.81291C11.9687 2.87894 12.4435 3.02328 12.8385 3.37852C12.9028 3.43632 12.9639 3.49748 13.0217 3.56175C13.377 3.95672 13.5213 4.43155 13.5873 4.95677C13.6502 5.45649 13.6501 6.08292 13.6501 6.83679V8.24726C13.6501 9.33857 13.6502 10.2233 13.5565 10.9202C13.4589 11.6458 13.2492 12.2644 12.7568 12.7568C12.2644 13.2492 11.6458 13.4589 10.9202 13.5565C10.2233 13.6502 9.33857 13.6501 8.24726 13.6501H5.75298C4.66168 13.6501 3.77698 13.6502 3.08006 13.5565C2.35443 13.4589 1.73582 13.2492 1.24345 12.7568C0.751075 12.2644 0.541345 11.6458 0.443786 10.9202C0.350087 10.2233 0.350102 9.33856 0.350121 8.24725L0.350122 3.96997C0.350122 3.9465 0.350116 3.92338 0.35011 3.9006C0.349984 3.43818 0.349897 3.1161 0.403001 2.83464C0.635785 1.60086 1.60086 0.635785 2.83464 0.403001C3.1161 0.349897 3.43818 0.349984 3.9006 0.35011ZM3.96997 1.65012C3.41089 1.65012 3.22142 1.65296 3.07567 1.68046C2.36776 1.81403 1.81403 2.36776 1.68046 3.07567C1.65296 3.22142 1.65012 3.41089 1.65012 3.96997V8.20012C1.65012 9.34987 1.6515 10.1468 1.73219 10.747C1.81037 11.3284 1.95211 11.627 2.16269 11.8376C2.37326 12.0481 2.6718 12.1899 3.25328 12.2681C3.85345 12.3487 4.65038 12.3501 5.80012 12.3501H8.20012C9.34987 12.3501 10.1468 12.3487 10.747 12.2681C11.3284 12.1899 11.627 12.0481 11.8376 11.8376C12.0481 11.627 12.1899 11.3284 12.2681 10.747C12.3487 10.1468 12.3501 9.34987 12.3501 8.20012V6.87887C12.3501 6.07211 12.3489 5.52799 12.2975 5.11893C12.2481 4.72612 12.1616 4.54944 12.0552 4.43109C12.028 4.40092 11.9993 4.37222 11.9692 4.34508C11.8508 4.23864 11.6741 4.15214 11.2813 4.10275C10.8723 4.05133 10.3281 4.05012 9.52138 4.05012H9.29718C9.26852 4.05012 9.24025 4.05013 9.21235 4.05014C8.60206 4.05038 8.16954 4.05055 7.75815 3.93329C7.53299 3.86911 7.31597 3.77921 7.11137 3.66538C6.73756 3.45741 6.43184 3.15145 6.00047 2.71974C5.98075 2.70001 5.96077 2.68001 5.9405 2.65974L5.61035 2.32959C5.43776 2.15699 5.38028 2.10045 5.32286 2.05285C5.05186 1.8282 4.71942 1.6905 4.36895 1.65772C4.29468 1.65078 4.21406 1.65012 3.96997 1.65012Z" fill="#1E1E1E"/>
</svg>
