<svg width="14" height="14" viewBox="0 0 14 14" fill="none" xmlns="http://www.w3.org/2000/svg">
<path d="M6.48383 13.3263C6.05216 13.3263 5.70216 13.1922 5.43383 12.9238C5.17716 12.6555 5.04883 12.2413 5.04883 11.6813C5.04883 11.4713 5.07799 11.1913 5.13633 10.8413L5.81883 7.28883C5.90049 6.79883 5.94133 6.46049 5.94133 6.27383C5.94133 6.00549 5.90049 5.78966 5.81883 5.62633C5.74883 5.463 5.63216 5.31133 5.46883 5.17133L5.48633 5.08383L8.25133 4.15633H8.33883L6.93883 11.4363C6.89216 11.658 6.86883 11.8505 6.86883 12.0138C6.86883 12.1655 6.89216 12.2763 6.93883 12.3463C6.98549 12.4047 7.06716 12.4338 7.18383 12.4338C7.55716 12.4338 7.9655 11.8097 8.40883 10.5613H8.70633C8.41466 11.6113 8.09383 12.3347 7.74383 12.7313C7.39383 13.128 6.97383 13.3263 6.48383 13.3263ZM7.63883 3.05383C7.32383 3.05383 7.06716 2.94883 6.86883 2.73883C6.67049 2.52883 6.57133 2.27216 6.57133 1.96883C6.57133 1.61883 6.7055 1.31549 6.97383 1.05883C7.24216 0.802162 7.55133 0.673828 7.90133 0.673828C8.20466 0.673828 8.4555 0.778828 8.65383 0.988828C8.85216 1.19883 8.95133 1.46133 8.95133 1.77633C8.95133 2.12633 8.81716 2.42966 8.54883 2.68633C8.29216 2.93133 7.98883 3.05383 7.63883 3.05383Z" fill="black"/>
</svg>
