<svg width="24" height="24" viewBox="0 0 24 24" fill="none" xmlns="http://www.w3.org/2000/svg">
<mask id="mask0_3228_8542" style="mask-type:luminance" maskUnits="userSpaceOnUse" x="0" y="0" width="24" height="24">
<path d="M7.41247 0.999802C6.23387 1.05543 5.42887 1.24421 4.72544 1.51985C3.99725 1.80373 3.37996 2.18417 2.7659 2.80075C2.15111 3.41769 1.77355 4.03607 1.49183 4.765C1.21907 5.47023 1.03423 6.2756 0.982188 7.45493C0.930514 8.63643 0.918664 9.01327 0.924424 12.0212C0.930162 15.0288 0.943437 15.4063 0.999778 16.5882C1.05612 17.7664 1.24419 18.5711 1.51983 19.2749C1.80407 20.0031 2.18412 20.62 2.80105 21.2345C3.41764 21.8489 4.03637 22.2261 4.76563 22.5082C5.47015 22.7806 6.27586 22.9661 7.45483 23.0178C8.63631 23.0699 9.01349 23.0813 12.0207 23.0756C15.0293 23.0699 15.4065 23.0566 16.5879 23.0006C17.7665 22.9442 18.5708 22.7555 19.275 22.4806C20.0032 22.1956 20.6204 21.8162 21.2345 21.1993C21.8486 20.5827 22.2261 19.964 22.5079 19.2347C22.7806 18.5302 22.9662 17.7244 23.0175 16.5462C23.0692 15.364 23.0814 14.9864 23.0756 11.9788C23.0699 8.97091 23.0563 8.59408 23.0003 7.41295C22.9443 6.23361 22.7555 5.42932 22.4802 4.72516C22.1956 3.99696 21.8159 3.38037 21.1994 2.76558C20.5828 2.15151 19.964 1.77323 19.2348 1.49221C18.5299 1.21945 17.7246 1.03354 16.5456 0.982573C15.3641 0.930174 14.9869 0.918697 11.9787 0.924437C8.97115 0.930177 8.59396 0.943101 7.41247 0.999802ZM7.54169 21.0241C6.46177 20.9771 5.87535 20.7977 5.48451 20.6473C4.96698 20.447 4.59769 20.2069 4.209 19.8211C3.82104 19.4339 3.58022 19.0656 3.37816 18.5492C3.22634 18.1583 3.04367 17.5726 2.99307 16.4927C2.93816 15.3252 2.92561 14.9749 2.92022 12.0172C2.91448 9.06029 2.92523 8.71 2.9762 7.54143C3.02249 6.46222 3.20303 5.87507 3.35304 5.48458C3.55329 4.96633 3.79267 4.59775 4.17921 4.20907C4.56645 3.82038 4.93467 3.58027 5.45148 3.37822C5.84196 3.22568 6.42768 3.04444 7.50723 2.99312C8.67543 2.93784 9.02534 2.92601 11.9823 2.92027C14.9399 2.91451 15.2902 2.92493 16.4587 2.97625C17.5379 3.02326 18.1251 3.202 18.5152 3.35309C19.0331 3.55335 19.4024 3.79202 19.7907 4.17928C20.179 4.56653 20.4198 4.93404 20.6219 5.45192C20.7744 5.84133 20.9557 6.42777 21.0066 7.50698C21.0622 8.67519 21.0748 9.02547 21.0802 11.9824C21.0859 14.9401 21.0752 15.2904 21.0238 16.4582C20.9768 17.5382 20.7977 18.125 20.647 18.5162C20.4468 19.0333 20.2074 19.4026 19.8205 19.7913C19.4336 20.1786 19.0654 20.4201 18.5482 20.6222C18.1584 20.7743 17.572 20.9559 16.4932 21.0073C15.325 21.0622 14.9751 21.0747 12.0171 21.0801C9.06015 21.0859 8.71024 21.0747 7.54169 21.0241ZM16.5718 6.07893C16.5732 6.81251 17.1697 7.40649 17.9033 7.40505C18.6372 7.40362 19.2312 6.80749 19.2301 6.0739C19.2287 5.34031 18.6322 4.74598 17.8983 4.74742C17.1643 4.74885 16.5703 5.34534 16.5718 6.07893ZM6.31248 12.0108C6.31857 15.1522 8.86995 17.6932 12.0106 17.6871C15.1516 17.681 17.694 15.1303 17.6879 11.9889C17.6818 8.84854 15.1301 6.3061 11.9887 6.31221C8.84804 6.31831 6.30637 8.87007 6.31248 12.0108ZM8.30755 12.0068C8.30396 9.96794 9.95416 8.31163 11.9927 8.30804C14.0316 8.30409 15.6882 9.95358 15.6921 11.9928C15.6961 14.0321 14.0459 15.688 12.0067 15.692C9.96816 15.6959 8.3115 14.0461 8.30755 12.0068Z" fill="white"/>
</mask>
<g mask="url(#mask0_3228_8542)">
<mask id="mask1_3228_8542" style="mask-type:luminance" maskUnits="userSpaceOnUse" x="0" y="0" width="24" height="24">
<path d="M23.9542 0.0556641H0.0280762V23.9821H23.9542V0.0556641Z" fill="white"/>
</mask>
<g mask="url(#mask1_3228_8542)">
<mask id="mask2_3228_8542" style="mask-type:luminance" maskUnits="userSpaceOnUse" x="-1" y="-1" width="26" height="26">
<path d="M24.0649 -0.0551758H-0.0827637V24.0928H24.0649V-0.0551758Z" fill="white"/>
</mask>
<g mask="url(#mask2_3228_8542)">
<mask id="mask3_3228_8542" style="mask-type:luminance" maskUnits="userSpaceOnUse" x="-1" y="-1" width="26" height="26">
<path d="M24.0649 -0.0551758H-0.0827637V24.0928H24.0649V-0.0551758Z" fill="white"/>
</mask>
<g mask="url(#mask3_3228_8542)">
<rect x="-0.0905762" y="-0.059082" width="24.1601" height="24.1601" fill="white"/>
</g>
</g>
</g>
</g>
</svg>
