<svg width="24" height="24" viewBox="0 0 24 24" fill="none" xmlns="http://www.w3.org/2000/svg">
<g clip-path="url(#clip0_4481_9150)">
<path d="M7.42414 1.02869C6.24857 1.08415 5.44578 1.27176 4.74397 1.54753C4.01764 1.83059 3.40201 2.21044 2.78948 2.82519C2.17694 3.43993 1.79974 4.056 1.51867 4.78344C1.24665 5.48679 1.06236 6.29025 1.01043 7.46648C0.958505 8.64271 0.947014 9.0208 0.95276 12.0212C0.958505 15.0215 0.971763 15.3976 1.02877 16.5763C1.0849 17.7516 1.27184 18.5542 1.54762 19.2562C1.83112 19.9825 2.21053 20.598 2.8255 21.2107C3.44046 21.8235 4.05609 22.1998 4.7853 22.4813C5.48799 22.7529 6.29166 22.938 7.46767 22.9895C8.64368 23.041 9.02221 23.053 12.0217 23.0472C15.0212 23.0415 15.3988 23.0282 16.5772 22.9723C17.7557 22.9164 18.5541 22.7281 19.2563 22.4537C19.9826 22.1695 20.5985 21.7908 21.2108 21.1756C21.8231 20.5604 22.2001 19.9439 22.4809 19.216C22.7532 18.5133 22.9381 17.7096 22.9892 16.5345C23.0407 15.3552 23.0528 14.9786 23.0471 11.9787C23.0413 8.97881 23.0278 8.60272 22.9719 7.4245C22.916 6.24628 22.7289 5.44614 22.4533 4.74367C22.1694 4.01733 21.7904 3.40237 21.1757 2.78917C20.5609 2.17597 19.944 1.79922 19.2163 1.51902C18.5132 1.24701 17.7099 1.06161 16.5339 1.01079C15.3579 0.959965 14.9794 0.946928 11.9788 0.952673C8.97824 0.958418 8.60258 0.971235 7.42414 1.02869ZM7.55319 21.0019C6.47595 20.955 5.89104 20.7761 5.50124 20.6262C4.98505 20.4274 4.61736 20.1869 4.22889 19.8022C3.84042 19.4175 3.60177 19.0485 3.40024 18.5334C3.24888 18.1436 3.06658 17.5594 3.01619 16.4821C2.96139 15.3178 2.9499 14.9683 2.9435 12.0185C2.93709 9.06875 2.94836 8.71961 2.9994 7.55487C3.04536 6.47852 3.22546 5.89294 3.37505 5.50337C3.57393 4.98651 3.81346 4.61948 4.19906 4.23123C4.58465 3.84298 4.95257 3.60389 5.4681 3.40237C5.85745 3.25034 6.4417 3.06958 7.5185 3.01832C8.68368 2.96307 9.03282 2.95203 11.9821 2.94562C14.9314 2.93921 15.2815 2.95026 16.4471 3.00152C17.5234 3.04837 18.1092 3.22669 18.4984 3.37718C19.0148 3.57605 19.3823 3.81492 19.7705 4.20118C20.1587 4.58744 20.3981 4.95403 20.5996 5.47066C20.7518 5.85891 20.9326 6.44294 20.9834 7.5204C21.0389 8.68558 21.0515 9.03494 21.0568 11.984C21.0621 14.9331 21.0517 15.2834 21.0007 16.4477C20.9536 17.5249 20.775 18.11 20.625 18.5003C20.4261 19.0162 20.1864 19.3842 19.8006 19.7722C19.4147 20.1602 19.0473 20.3993 18.5315 20.6008C18.1426 20.7526 17.5577 20.9338 16.4818 20.9851C15.3166 21.0399 14.9675 21.0514 12.017 21.0578C9.06662 21.0642 8.71859 21.0523 7.55341 21.0019M16.5602 6.09491C16.5607 6.35715 16.6389 6.61338 16.7849 6.83117C16.931 7.04897 17.1384 7.21856 17.3808 7.31849C17.6233 7.41842 17.8899 7.44421 18.147 7.39259C18.4042 7.34096 18.6402 7.21425 18.8253 7.02848C19.0104 6.84271 19.1362 6.60622 19.1869 6.34892C19.2376 6.09162 19.2108 5.82507 19.11 5.58298C19.0092 5.34089 18.8388 5.13414 18.6205 4.98887C18.4022 4.8436 18.1456 4.76634 17.8834 4.76687C17.5318 4.76757 17.195 4.90787 16.9468 5.15691C16.6987 5.40596 16.5596 5.74335 16.5602 6.09491ZM6.32702 12.011C6.3332 15.1444 8.87791 17.6787 12.0106 17.6727C15.1434 17.6668 17.6794 15.1223 17.6735 11.9889C17.6675 8.85551 15.1221 6.32052 11.989 6.32671C8.85582 6.3329 6.32105 8.87805 6.32702 12.011ZM8.31709 12.007C8.31565 11.2786 8.53024 10.5661 8.93373 9.95966C9.33721 9.3532 9.91147 8.88002 10.5839 8.59993C11.2563 8.31985 11.9967 8.24545 12.7114 8.38614C13.4261 8.52683 14.083 8.8763 14.5991 9.39035C15.1152 9.90439 15.4672 10.5599 15.6108 11.2741C15.7543 11.9882 15.6828 12.7289 15.4054 13.4024C15.128 14.0759 14.6571 14.652 14.0522 15.0579C13.4474 15.4638 12.7357 15.6812 12.0073 15.6827C11.5237 15.6837 11.0445 15.5894 10.5973 15.4052C10.1501 15.221 9.7435 14.9506 9.40082 14.6092C9.05814 14.2679 8.78605 13.8624 8.60011 13.4159C8.41416 12.9694 8.31799 12.4907 8.31709 12.007Z" fill="white"/>
</g>
<defs>
<clipPath id="clip0_4481_9150">
<rect width="24" height="24" fill="white"/>
</clipPath>
</defs>
</svg>
