<svg width="172" height="60" viewBox="0 0 172 60" fill="none" xmlns="http://www.w3.org/2000/svg">
<path d="M27.0104 48.5605V45.2124L30.9311 46.788C29.6943 47.5233 28.3787 48.1141 27.0104 48.5605ZM27.0104 43.0722V39.5271L31.5757 41.8905V45.0023L27.0104 43.0722ZM27.0104 36.8617V33.4086L31.5757 36.0871V39.3302L27.0104 36.8617ZM27.0104 30.9795L31.5757 33.9206V30.6644L27.0236 27.7758L27.0104 30.9795ZM9.98582 46.2234V36.7436L14.788 35.4568V48.5474C13.0908 47.9959 11.4725 47.2081 9.98582 46.2234ZM27.0104 27.7758V30.9664L23.0898 28.4455V25.2943L27.0104 27.7758ZM27.0104 33.4086V36.8617L23.0898 34.7347V31.0977L27.0104 33.4086ZM27.0104 39.5271V43.0722L23.0898 41.4047V37.5051L27.0104 39.5271ZM27.0104 45.2124V48.5605C25.7342 48.9807 24.4186 49.2564 23.0898 49.4009V43.6368L27.0104 45.2124ZM21.5767 49.519C21.3531 49.519 21.1294 49.5322 20.9189 49.5322C19.1691 49.5322 17.4324 49.3089 15.7484 48.8494V25.2943L21.5767 21.933V49.519ZM20.9189 9C32.4704 9 41.8378 18.3485 41.8378 29.8766C41.8378 41.4047 32.4704 50.7532 20.9189 50.7532V48.2979C31.1152 48.206 39.3118 39.8948 39.2328 29.7191C39.1408 19.6615 30.9968 11.5341 20.9189 11.4422V9ZM20.9189 9V11.4422C10.7226 11.5341 2.52606 19.8453 2.605 30.021C2.68394 40.0786 10.841 48.206 20.9189 48.2979V50.7532C9.36747 50.7532 0 41.4047 0 29.8766C0 18.3485 9.36747 9 20.9189 9Z" fill="#141414"/>
<path d="M57.7135 41.474H53.4609V22.9699H57.7135V31.0324L63.8001 22.9699H68.9032L61.913 31.5082L69.4614 41.474H64.0659L57.7135 32.6713V41.474Z" fill="#141414"/>
<path d="M83.1597 41.474H71.8637V22.9699H82.8939V26.935H76.1163V30.1865H82.0965V34.1516H76.1163V37.5088H83.1597V41.474Z" fill="#141414"/>
<path d="M97.544 22.9699H102.142L95.5506 33.9402V41.474H91.298V33.9402L84.7596 22.9699H89.6235L93.6103 29.975L97.544 22.9699Z" fill="#141414"/>
<path d="M108.795 34.9975V41.474H104.542V22.9699C105.552 22.9699 106.668 22.961 107.891 22.9434C109.114 22.9258 110.106 22.917 110.868 22.917C115.457 22.917 117.752 24.8908 117.752 28.8383C117.752 31.376 116.706 33.1559 114.616 34.1781L120.038 41.474H114.881L110.363 34.9975H108.795ZM110.655 26.8822C110.638 26.8822 110.558 26.891 110.416 26.9086C110.274 26.9086 110.053 26.9174 109.752 26.935C109.45 26.935 109.131 26.935 108.795 26.935V31.0324H110.336C112.268 31.0324 113.233 30.3186 113.233 28.8912C113.233 27.5518 112.374 26.8822 110.655 26.8822Z" fill="#141414"/>
<path d="M133.722 41.474H122.426V22.9699H133.456V26.935H126.678V30.1865H132.659V34.1516H126.678V37.5088H133.722V41.474Z" fill="#141414"/>
<path d="M153.927 22.9699V41.474H150.525L141.701 30.3715V41.474H137.714V22.9699H141.116L149.94 34.1252V22.9699H153.927Z" fill="#141414"/>
<path d="M162.167 26.935H156.586V22.9699H172.001V26.935H166.42V41.474H162.167V26.935Z" fill="#141414"/>
</svg>
