<svg width="16" height="16" viewBox="0 0 16 16" fill="none" xmlns="http://www.w3.org/2000/svg">
<g clip-path="url(#clip0_3673_9796)">
<path fill-rule="evenodd" clip-rule="evenodd" d="M5.94525 10.055C5.65235 9.7621 5.65235 9.28722 5.94525 8.99433L8.9948 5.94477C9.2877 5.65188 9.76257 5.65188 10.0555 5.94477C10.3484 6.23767 10.3484 6.71254 10.0555 7.00543L7.00591 10.055C6.71301 10.3479 6.23814 10.3479 5.94525 10.055Z" fill="#141414"/>
<path fill-rule="evenodd" clip-rule="evenodd" d="M8.14739 2.08845C9.4947 0.741137 11.6791 0.741136 13.0264 2.08844L13.9221 2.98411C15.2694 4.33142 15.2694 6.51584 13.9221 7.86315L12.2642 9.5211C11.9713 9.81399 11.4964 9.81399 11.2035 9.5211C10.9106 9.22821 10.9106 8.75333 11.2035 8.46044L12.8614 6.80249C13.623 6.04097 13.623 4.8063 12.8614 4.04477L11.9658 3.1491C11.2043 2.38758 9.96958 2.38758 9.20805 3.14911L7.55011 4.80705C7.25721 5.09995 6.78234 5.09995 6.48945 4.80705C6.19655 4.51416 6.19655 4.03929 6.48945 3.74639L8.14739 2.08845Z" fill="#141414"/>
<path fill-rule="evenodd" clip-rule="evenodd" d="M7.86042 13.9247C6.51311 15.272 4.32869 15.272 2.98138 13.9247L2.08571 13.0291C0.738401 11.6818 0.738404 9.49734 2.08571 8.15003L3.74366 6.49208C4.03656 6.19919 4.51143 6.19919 4.80432 6.49208C5.09722 6.78498 5.09722 7.25985 4.80432 7.55274L3.14637 9.21069C2.38485 9.97222 2.38485 11.2069 3.14637 11.9684L4.04204 12.8641C4.80356 13.6256 6.03824 13.6256 6.79976 12.8641L8.45771 11.2061C8.7506 10.9132 9.22547 10.9132 9.51837 11.2061C9.81126 11.499 9.81126 11.9739 9.51837 12.2668L7.86042 13.9247Z" fill="#141414"/>
</g>
<defs>
<clipPath id="clip0_3673_9796">
<rect width="16" height="16" fill="white"/>
</clipPath>
</defs>
</svg>
