<svg width="149" height="30" viewBox="0 0 149 30" fill="none" xmlns="http://www.w3.org/2000/svg">
<path fill-rule="evenodd" clip-rule="evenodd" d="M22.1513 4.96548C21.6762 4.40392 20.978 4.08005 20.2425 4.08008L13.0993 4.08037C13.0993 4.08037 13.0992 4.08032 13.0992 4.08027C13.0992 4.08022 13.0992 4.08017 13.0991 4.08017H9.58105H7.56445H2.57031C1.74189 4.08017 1.07031 4.75175 1.07031 5.58017V24.4839C1.07031 25.3123 1.74188 25.9839 2.57031 25.9839H8.28105C9.10948 25.9839 9.78105 25.3123 9.78105 24.4839V6.88953C9.78105 6.27803 10.2768 5.78232 10.8883 5.78232C11.2122 5.78232 11.5199 5.92419 11.7303 6.17054L17.982 13.4918C18.4255 14.0113 18.4621 14.7648 18.071 15.3248L14.4899 20.4521C13.9704 21.196 14.0167 22.1963 14.6027 22.889L16.4718 25.0986C16.9468 25.6601 17.645 25.984 18.3806 25.984L26.5087 25.9836C27.3622 25.9836 27.8233 24.9833 27.2691 24.3343L20.6411 16.5722C20.1975 16.0528 20.1609 15.2993 20.552 14.7393L24.1331 9.6119C24.6526 8.86807 24.6064 7.86773 24.0204 7.17504L22.1513 4.96548Z" fill="white"/>
<path d="M50.71 21H47.82L45.049 16.835H43.74V21H41.19V9.1H46.29C47.0833 9.1 47.7803 9.26433 48.381 9.593C48.9817 9.91033 49.4463 10.3637 49.775 10.953C50.115 11.5423 50.285 12.228 50.285 13.01C50.285 13.928 50.0413 14.71 49.554 15.356C49.078 16.002 48.4887 16.444 47.786 16.682L50.71 21ZM43.74 11.395V14.625H46.12C46.596 14.625 46.9813 14.4833 47.276 14.2C47.582 13.9053 47.735 13.5087 47.735 13.01C47.735 12.5113 47.582 12.1203 47.276 11.837C46.9813 11.5423 46.596 11.395 46.12 11.395H43.74ZM54.5396 16.07V18.705H60.2346V21H51.9896V9.1H60.0646V11.395H54.5396V13.945H59.7246V16.07H54.5396ZM61.843 21V9.1H66.773C67.589 9.1 68.3087 9.27567 68.932 9.627C69.5667 9.967 70.0597 10.4487 70.411 11.072C70.7623 11.6953 70.938 12.398 70.938 13.18C70.938 13.962 70.7623 14.6647 70.411 15.288C70.0597 15.9113 69.5667 16.3987 68.932 16.75C68.3087 17.09 67.589 17.26 66.773 17.26H64.393V21H61.843ZM66.518 14.965C67.1073 14.965 67.5663 14.8063 67.895 14.489C68.2237 14.1717 68.388 13.7353 68.388 13.18C68.388 12.6247 68.2237 12.1883 67.895 11.871C67.5663 11.5537 67.1073 11.395 66.518 11.395H64.393V14.965H66.518ZM75.01 21H72.46V9.1H75.01V21ZM79.6007 21H77.0507V9.1H80.3657L84.8707 17.345H84.9557V9.1H87.5057V21H84.1907L79.6857 12.755H79.6007V21ZM96.9297 11.888C97.995 11.888 98.8393 12.1487 99.4627 12.67C100.097 13.1913 100.415 13.9053 100.415 14.812C100.415 15.0273 100.386 15.288 100.33 15.594L99.2757 21H97.6267L97.5927 19.997H97.5077C97.2697 20.337 96.9297 20.6203 96.4877 20.847C96.057 21.0623 95.564 21.17 95.0087 21.17C94.136 21.17 93.439 20.9377 92.9177 20.473C92.4077 20.0083 92.1527 19.402 92.1527 18.654C92.1527 18.076 92.2887 17.5603 92.5607 17.107C92.844 16.6423 93.2463 16.2797 93.7677 16.019C94.289 15.7583 94.8953 15.628 95.5867 15.628H98.3577L98.4257 15.288C98.4483 15.1293 98.4597 15.0103 98.4597 14.931C98.4597 14.5003 98.301 14.1717 97.9837 13.945C97.6777 13.7183 97.2697 13.605 96.7597 13.605C95.989 13.605 95.4337 13.9223 95.0937 14.557H93.1047C93.3993 13.7297 93.8753 13.078 94.5327 12.602C95.19 12.126 95.989 11.888 96.9297 11.888ZM95.6037 19.504C96.227 19.504 96.7427 19.3453 97.1507 19.028C97.57 18.6993 97.8363 18.246 97.9497 17.668L98.0517 17.124H95.6547C95.1333 17.124 94.7423 17.243 94.4817 17.481C94.2323 17.719 94.1077 18.0307 94.1077 18.416C94.1077 18.7333 94.238 18.994 94.4987 19.198C94.7593 19.402 95.1277 19.504 95.6037 19.504ZM104.97 24.4C103.803 24.4 102.862 24.1507 102.148 23.652C101.434 23.1647 101.003 22.4507 100.856 21.51H102.879C102.992 21.884 103.236 22.1617 103.61 22.343C103.995 22.5357 104.443 22.632 104.953 22.632C106.188 22.632 106.925 22.0483 107.163 20.881L107.435 19.47H107.35C107.135 19.742 106.817 19.98 106.398 20.184C105.979 20.388 105.503 20.49 104.97 20.49C103.916 20.49 103.077 20.184 102.454 19.572C101.831 18.9487 101.519 18.0987 101.519 17.022C101.519 15.968 101.712 15.0557 102.097 14.285C102.482 13.503 103.009 12.908 103.678 12.5C104.347 12.092 105.095 11.888 105.922 11.888C106.534 11.888 107.067 12.0183 107.52 12.279C107.985 12.5283 108.353 12.8457 108.625 13.231H108.71L109.186 12.058H110.835L109.067 21.068C108.863 22.156 108.41 22.9833 107.707 23.55C107.004 24.1167 106.092 24.4 104.97 24.4ZM105.497 18.722C106.268 18.722 106.891 18.4443 107.367 17.889C107.843 17.3223 108.081 16.58 108.081 15.662C108.081 15.05 107.894 14.5627 107.52 14.2C107.157 13.8373 106.67 13.656 106.058 13.656C105.299 13.656 104.681 13.9393 104.205 14.506C103.729 15.0613 103.491 15.798 103.491 16.716C103.491 17.328 103.672 17.8153 104.035 18.178C104.409 18.5407 104.896 18.722 105.497 18.722ZM119.957 15.645C119.957 15.917 119.934 16.2003 119.889 16.495C119.855 16.7897 119.809 17.0107 119.753 17.158H113.293C113.304 17.8947 113.497 18.4613 113.871 18.858C114.245 19.2547 114.743 19.453 115.367 19.453C116.228 19.453 116.88 19.1017 117.322 18.399H119.396C119.044 19.2717 118.512 19.9517 117.798 20.439C117.095 20.9263 116.279 21.17 115.35 21.17C114.114 21.17 113.134 20.8357 112.409 20.167C111.695 19.487 111.338 18.5577 111.338 17.379C111.338 16.2457 111.553 15.2653 111.984 14.438C112.414 13.6107 112.987 12.9817 113.701 12.551C114.426 12.109 115.208 11.888 116.047 11.888C116.863 11.888 117.565 12.0467 118.155 12.364C118.744 12.6813 119.192 13.1233 119.498 13.69C119.804 14.2567 119.957 14.9083 119.957 15.645ZM118.087 15.662C118.041 15.0047 117.832 14.5003 117.458 14.149C117.095 13.7863 116.591 13.605 115.945 13.605C115.344 13.605 114.834 13.7977 114.415 14.183C114.007 14.557 113.706 15.05 113.514 15.662H118.087ZM120.434 21L122.168 12.058H123.817L123.851 13.061H123.936C124.22 12.6983 124.582 12.415 125.024 12.211C125.466 11.9957 125.925 11.888 126.401 11.888C126.979 11.888 127.478 12.024 127.897 12.296C128.328 12.5567 128.657 12.9193 128.883 13.384C129.121 13.8487 129.24 14.37 129.24 14.948C129.24 15.1973 129.212 15.4807 129.155 15.798L128.152 21H126.197L127.183 15.9C127.217 15.7073 127.234 15.5203 127.234 15.339C127.234 14.8403 127.098 14.438 126.826 14.132C126.554 13.8147 126.163 13.656 125.653 13.656C125.109 13.656 124.633 13.8373 124.225 14.2C123.817 14.5627 123.557 15.0217 123.443 15.577L122.389 21H120.434ZM134.36 21.17C133.113 21.17 132.133 20.8357 131.419 20.167C130.705 19.4983 130.348 18.569 130.348 17.379C130.348 16.223 130.563 15.2313 130.994 14.404C131.436 13.5767 132.014 12.9533 132.728 12.534C133.442 12.1033 134.207 11.888 135.023 11.888C136.122 11.888 136.989 12.143 137.624 12.653C138.258 13.163 138.672 13.8883 138.865 14.829H136.876C136.728 14.4437 136.49 14.1547 136.162 13.962C135.833 13.758 135.448 13.656 135.006 13.656C134.564 13.656 134.133 13.792 133.714 14.064C133.306 14.3247 132.966 14.7213 132.694 15.254C132.433 15.7753 132.303 16.4157 132.303 17.175C132.303 17.889 132.495 18.4387 132.881 18.824C133.266 19.2093 133.759 19.402 134.36 19.402C134.847 19.402 135.266 19.2887 135.618 19.062C135.98 18.8353 136.247 18.5577 136.417 18.229H138.44C138.077 19.1357 137.55 19.8553 136.859 20.388C136.167 20.9093 135.334 21.17 134.36 21.17ZM141.345 24.4H139.237L141.328 20.932L139.407 12.058H141.464L142.722 18.484H142.807L146.513 12.058H148.655L141.345 24.4Z" fill="white"/>
</svg>
