<svg width="153" height="30" viewBox="0 0 153 30" fill="none" xmlns="http://www.w3.org/2000/svg">
<path fill-rule="evenodd" clip-rule="evenodd" d="M22.1513 4.96499C21.6762 4.40343 20.978 4.07956 20.2425 4.07959L13.0993 4.07988C13.0993 4.07988 13.0992 4.07984 13.0992 4.07978C13.0992 4.07973 13.0992 4.07969 13.0991 4.07969H9.58105H7.56445H2.57031C1.74189 4.07969 1.07031 4.75126 1.07031 5.57968V24.4834C1.07031 25.3118 1.74188 25.9834 2.57031 25.9834H8.28105C9.10948 25.9834 9.78105 25.3118 9.78105 24.4834V6.88905C9.78105 6.27755 10.2768 5.78183 10.8883 5.78183C11.2122 5.78183 11.5199 5.9237 11.7303 6.17005L17.982 13.4913C18.4255 14.0108 18.4621 14.7643 18.071 15.3243L14.4899 20.4516C13.9704 21.1955 14.0167 22.1958 14.6027 22.8885L16.4718 25.0981C16.9468 25.6596 17.645 25.9835 18.3806 25.9835L26.5087 25.9831C27.3622 25.9831 27.8233 24.9828 27.2691 24.3338L20.6411 16.5717C20.1975 16.0523 20.1609 15.2988 20.552 14.7388L24.1331 9.61141C24.6526 8.86758 24.6064 7.86724 24.0204 7.17455L22.1513 4.96499Z" fill="black"/>
<path d="M50.71 21H47.82L45.049 16.835H43.74V21H41.19V9.1H46.29C47.0833 9.1 47.7803 9.26433 48.381 9.593C48.9817 9.91033 49.4463 10.3637 49.775 10.953C50.115 11.5423 50.285 12.228 50.285 13.01C50.285 13.928 50.0413 14.71 49.554 15.356C49.078 16.002 48.4887 16.444 47.786 16.682L50.71 21ZM43.74 11.395V14.625H46.12C46.596 14.625 46.9813 14.4833 47.276 14.2C47.582 13.9053 47.735 13.5087 47.735 13.01C47.735 12.5113 47.582 12.1203 47.276 11.837C46.9813 11.5423 46.596 11.395 46.12 11.395H43.74ZM54.8796 16.07V18.705H60.5746V21H52.3296V9.1H60.4046V11.395H54.8796V13.945H60.0646V16.07H54.8796ZM62.523 21V9.1H67.453C68.269 9.1 68.9887 9.27567 69.612 9.627C70.2467 9.967 70.7397 10.4487 71.091 11.072C71.4423 11.6953 71.618 12.398 71.618 13.18C71.618 13.962 71.4423 14.6647 71.091 15.288C70.7397 15.9113 70.2467 16.3987 69.612 16.75C68.9887 17.09 68.269 17.26 67.453 17.26H65.073V21H62.523ZM67.198 14.965C67.7873 14.965 68.2463 14.8063 68.575 14.489C68.9037 14.1717 69.068 13.7353 69.068 13.18C69.068 12.6247 68.9037 12.1883 68.575 11.871C68.2463 11.5537 67.7873 11.395 67.198 11.395H65.073V14.965H67.198ZM76.03 21H73.48V9.1H76.03V21ZM80.9607 21H78.4107V9.1H81.7257L86.2307 17.345H86.3157V9.1H88.8657V21H85.5507L81.0457 12.755H80.9607V21ZM98.9697 11.888C100.035 11.888 100.879 12.1487 101.503 12.67C102.137 13.1913 102.455 13.9053 102.455 14.812C102.455 15.0273 102.426 15.288 102.37 15.594L101.316 21H99.6667L99.6327 19.997H99.5477C99.3097 20.337 98.9697 20.6203 98.5277 20.847C98.097 21.0623 97.604 21.17 97.0487 21.17C96.176 21.17 95.479 20.9377 94.9577 20.473C94.4477 20.0083 94.1927 19.402 94.1927 18.654C94.1927 18.076 94.3287 17.5603 94.6007 17.107C94.884 16.6423 95.2863 16.2797 95.8077 16.019C96.329 15.7583 96.9353 15.628 97.6267 15.628H100.398L100.466 15.288C100.488 15.1293 100.5 15.0103 100.5 14.931C100.5 14.5003 100.341 14.1717 100.024 13.945C99.7177 13.7183 99.3097 13.605 98.7997 13.605C98.029 13.605 97.4737 13.9223 97.1337 14.557H95.1447C95.4393 13.7297 95.9153 13.078 96.5727 12.602C97.23 12.126 98.029 11.888 98.9697 11.888ZM97.6437 19.504C98.267 19.504 98.7827 19.3453 99.1907 19.028C99.61 18.6993 99.8763 18.246 99.9897 17.668L100.092 17.124H97.6947C97.1733 17.124 96.7823 17.243 96.5217 17.481C96.2723 17.719 96.1477 18.0307 96.1477 18.416C96.1477 18.7333 96.278 18.994 96.5387 19.198C96.7993 19.402 97.1677 19.504 97.6437 19.504ZM107.35 24.4C106.183 24.4 105.242 24.1507 104.528 23.652C103.814 23.1647 103.383 22.4507 103.236 21.51H105.259C105.372 21.884 105.616 22.1617 105.99 22.343C106.375 22.5357 106.823 22.632 107.333 22.632C108.568 22.632 109.305 22.0483 109.543 20.881L109.815 19.47H109.73C109.515 19.742 109.197 19.98 108.778 20.184C108.359 20.388 107.883 20.49 107.35 20.49C106.296 20.49 105.457 20.184 104.834 19.572C104.211 18.9487 103.899 18.0987 103.899 17.022C103.899 15.968 104.092 15.0557 104.477 14.285C104.862 13.503 105.389 12.908 106.058 12.5C106.727 12.092 107.475 11.888 108.302 11.888C108.914 11.888 109.447 12.0183 109.9 12.279C110.365 12.5283 110.733 12.8457 111.005 13.231H111.09L111.566 12.058H113.215L111.447 21.068C111.243 22.156 110.79 22.9833 110.087 23.55C109.384 24.1167 108.472 24.4 107.35 24.4ZM107.877 18.722C108.648 18.722 109.271 18.4443 109.747 17.889C110.223 17.3223 110.461 16.58 110.461 15.662C110.461 15.05 110.274 14.5627 109.9 14.2C109.537 13.8373 109.05 13.656 108.438 13.656C107.679 13.656 107.061 13.9393 106.585 14.506C106.109 15.0613 105.871 15.798 105.871 16.716C105.871 17.328 106.052 17.8153 106.415 18.178C106.789 18.5407 107.276 18.722 107.877 18.722ZM122.677 15.645C122.677 15.917 122.654 16.2003 122.609 16.495C122.575 16.7897 122.529 17.0107 122.473 17.158H116.013C116.024 17.8947 116.217 18.4613 116.591 18.858C116.965 19.2547 117.463 19.453 118.087 19.453C118.948 19.453 119.6 19.1017 120.042 18.399H122.116C121.764 19.2717 121.232 19.9517 120.518 20.439C119.815 20.9263 118.999 21.17 118.07 21.17C116.834 21.17 115.854 20.8357 115.129 20.167C114.415 19.487 114.058 18.5577 114.058 17.379C114.058 16.2457 114.273 15.2653 114.704 14.438C115.134 13.6107 115.707 12.9817 116.421 12.551C117.146 12.109 117.928 11.888 118.767 11.888C119.583 11.888 120.285 12.0467 120.875 12.364C121.464 12.6813 121.912 13.1233 122.218 13.69C122.524 14.2567 122.677 14.9083 122.677 15.645ZM120.807 15.662C120.761 15.0047 120.552 14.5003 120.178 14.149C119.815 13.7863 119.311 13.605 118.665 13.605C118.064 13.605 117.554 13.7977 117.135 14.183C116.727 14.557 116.426 15.05 116.234 15.662H120.807ZM123.494 21L125.228 12.058H126.877L126.911 13.061H126.996C127.28 12.6983 127.642 12.415 128.084 12.211C128.526 11.9957 128.985 11.888 129.461 11.888C130.039 11.888 130.538 12.024 130.957 12.296C131.388 12.5567 131.717 12.9193 131.943 13.384C132.181 13.8487 132.3 14.37 132.3 14.948C132.3 15.1973 132.272 15.4807 132.215 15.798L131.212 21H129.257L130.243 15.9C130.277 15.7073 130.294 15.5203 130.294 15.339C130.294 14.8403 130.158 14.438 129.886 14.132C129.614 13.8147 129.223 13.656 128.713 13.656C128.169 13.656 127.693 13.8373 127.285 14.2C126.877 14.5627 126.617 15.0217 126.503 15.577L125.449 21H123.494ZM137.76 21.17C136.513 21.17 135.533 20.8357 134.819 20.167C134.105 19.4983 133.748 18.569 133.748 17.379C133.748 16.223 133.963 15.2313 134.394 14.404C134.836 13.5767 135.414 12.9533 136.128 12.534C136.842 12.1033 137.607 11.888 138.423 11.888C139.522 11.888 140.389 12.143 141.024 12.653C141.658 13.163 142.072 13.8883 142.265 14.829H140.276C140.128 14.4437 139.89 14.1547 139.562 13.962C139.233 13.758 138.848 13.656 138.406 13.656C137.964 13.656 137.533 13.792 137.114 14.064C136.706 14.3247 136.366 14.7213 136.094 15.254C135.833 15.7753 135.703 16.4157 135.703 17.175C135.703 17.889 135.895 18.4387 136.281 18.824C136.666 19.2093 137.159 19.402 137.76 19.402C138.247 19.402 138.666 19.2887 139.018 19.062C139.38 18.8353 139.647 18.5577 139.817 18.229H141.84C141.477 19.1357 140.95 19.8553 140.259 20.388C139.567 20.9093 138.734 21.17 137.76 21.17ZM145.085 24.4H142.977L145.068 20.932L143.147 12.058H145.204L146.462 18.484H146.547L150.253 12.058H152.395L145.085 24.4Z" fill="#141414"/>
</svg>
