<svg width="172" height="60" viewBox="0 0 172 60" fill="none" xmlns="http://www.w3.org/2000/svg">
<path d="M40.6487 8.05856C39.8702 5.99658 38.3808 4.61625 36.1975 4.00277C35.0635 3.67898 33.8618 3.6449 32.5247 3.90052C31.1876 4.15614 29.8844 4.65033 28.632 5.34902C26.7533 6.42261 24.9931 7.75182 23.436 9.30256C21.7943 10.9215 20.2371 12.813 18.5446 15.2499C18.1554 15.8123 17.783 16.3746 17.3937 16.937C17.326 17.0392 17.2583 17.1415 17.1737 17.2608L17.8676 15.1306C18.0538 14.5512 18.1215 13.9378 18.0538 13.3072C18.003 12.7619 17.6645 12.3018 17.1737 12.0632C16.6829 11.8247 16.1074 11.8587 15.6335 12.1484L15.5658 12.1825C15.4304 12.2677 15.2781 12.37 15.1596 12.5063C15.075 12.6085 14.9735 12.7108 14.8888 12.796C14.5842 13.1198 14.2795 13.4436 14.0426 13.8355C13.6195 14.5172 13.2302 15.267 12.824 16.1361C12.0285 17.8743 11.2669 19.6125 10.4883 21.3336L9.42205 23.7364C9.10047 24.4692 8.76197 25.202 8.44039 25.9347C8.38962 26.054 8.35577 26.0711 8.35577 26.0881C8.35577 26.0881 8.33884 26.1051 8.32192 26.1051C8.16959 26.0199 8.03419 25.9177 7.91572 25.8154C7.74647 25.6621 7.57722 25.4917 7.40797 25.3212C7.17102 25.0827 6.93407 24.8611 6.68019 24.6396C6.35861 24.3669 5.95241 24.2988 5.54621 24.4692C5.10616 24.6566 4.83536 25.0145 4.76766 25.5087C4.71689 25.9347 4.78458 26.3437 4.97076 26.7016C5.15694 27.0424 5.32619 27.3321 5.51236 27.6048C5.85086 28.133 6.20629 28.6443 6.57864 29.1555C6.76482 29.4282 6.79867 29.6838 6.68019 29.9735L6.54479 30.2973C6.30784 30.8767 6.08781 31.439 5.83394 32.0184C4.49686 35.0517 3.32903 37.8976 2.26275 40.7094C1.3488 43.1122 0.6718 45.3787 0.180974 47.594C0.0624987 48.1223 -0.0559766 48.838 0.0286486 49.5708C0.0794237 49.9457 0.197899 50.3377 0.384074 50.6444C0.654875 51.1386 1.11185 51.4453 1.63653 51.5135C1.70423 51.5305 1.78885 51.5305 1.85655 51.5305C2.2966 51.5305 2.71973 51.3431 3.04131 51.0193C3.36288 50.6955 3.61676 50.3377 3.80293 49.9798L4.03988 49.4856C4.59841 48.395 5.15694 47.2532 5.64776 46.1115C6.68019 43.6575 7.71262 41.2036 8.72812 38.7326C9.26972 37.4034 9.82825 36.0913 10.3698 34.7621C10.556 34.3019 10.793 33.8248 11.0807 33.2454C11.0976 33.2113 11.1653 33.1602 11.233 33.1091H11.25L11.6223 33.2454C12.0285 33.3817 12.4347 33.518 12.824 33.6885C13.9749 34.1486 15.1935 34.3019 16.3613 34.4553L16.886 34.5235C17.6476 34.6257 18.4092 34.5064 19.137 34.3871C19.3232 34.3531 19.4924 34.336 19.6786 34.3019C22.1328 33.9611 24.5023 33.2283 26.7194 32.1377C29.1736 30.9107 31.56 29.2066 34.2172 26.7527C34.488 26.5141 34.6742 26.3096 34.8435 26.1051L34.9112 26.0199C36.0621 24.6226 37.2637 23.1741 38.2792 21.6063C39.7517 19.3057 40.7334 16.8007 41.2919 13.9207C41.6135 12.0462 41.4273 10.1205 40.6487 8.05856ZM37.8053 15.7952C36.976 17.6698 35.8928 19.2887 34.6065 20.652L34.4034 20.8565C33.6249 21.6744 32.8294 22.5095 31.9831 23.2763C28.9028 26.054 25.8393 27.9456 22.6236 29.0362C20.1864 29.8712 18.003 30.2121 15.9213 30.0757C14.8888 30.0076 13.9749 29.786 12.8917 29.343C12.8917 29.3259 12.9086 29.3089 12.9086 29.2918C12.9763 29.1044 13.044 28.934 13.1117 28.7806L13.4333 28.116C14.635 25.6791 15.8705 23.157 17.2922 20.8053C18.7816 18.3344 20.4064 15.7441 22.4036 13.4436C24.1807 11.3986 26.1271 9.26848 28.5812 7.7859C29.8506 7.01905 30.9507 6.47373 32.017 6.11587C32.9648 5.79209 34.0141 5.72392 35.2158 5.89433C36.4344 6.08179 37.3822 6.79751 38.11 8.10968C38.4316 8.68908 38.6347 9.35369 38.7024 10.0865C38.8885 12.1314 38.5839 14.04 37.8053 15.7952ZM74.8881 18.0276C74.228 19.7318 73.6187 21.095 72.9417 22.322C72.8232 22.5435 72.7048 22.7821 72.5863 23.0037L72.417 23.3274C72.214 23.7194 71.9939 24.1113 71.7908 24.5033C71.3169 25.4065 70.8261 26.3437 70.3183 27.2469C69.5567 28.5761 68.8797 29.5475 68.135 30.3825C68.0335 30.5018 67.9319 30.621 67.8473 30.7403L67.6442 30.996C66.8826 31.9162 65.9686 32.7171 64.8346 33.4499C64.2253 33.8248 63.5822 34.0293 62.8883 34.0293H62.8206C62.1605 34.0122 61.6189 33.7396 61.2127 33.1772C60.9249 32.7853 60.7726 32.3763 60.7557 31.9503C60.7388 31.6435 60.7388 31.3368 60.7557 31.1664V31.0641C60.7218 30.4336 60.7557 29.8712 60.8403 29.343C60.0618 30.178 59.3171 30.9789 58.6231 31.7117C58.0815 32.2911 57.5061 32.8534 56.9137 33.4158C56.0675 34.2167 55.0858 34.8813 54.0195 35.3755C53.021 35.8356 52.0562 35.7675 51.1254 35.1881C50.3129 34.6768 50.0083 33.8929 49.8221 33.2454C49.7713 33.075 49.7544 32.9046 49.7206 32.7512C49.7036 32.7682 49.6867 32.7682 49.6698 32.7853L49.5005 32.9046C48.9589 33.2795 48.4173 33.6714 47.8757 34.0634C47.0803 34.6428 46.2171 35.0006 45.3708 35.3414C44.7615 35.58 44.1015 35.6993 43.4414 35.6993H43.3737C42.4936 35.6823 41.6981 35.4096 40.9703 34.8643C40.6826 34.6428 40.4456 34.4042 40.2764 34.1145C39.8194 33.3647 39.5317 32.7001 39.3963 32.0355C39.2947 31.5583 39.2101 31.0641 39.1424 30.5358C39.0916 30.0757 39.1593 29.6156 39.227 29.1896L39.2609 28.9851C39.5655 26.8379 40.4456 24.8271 41.9351 22.8332C42.9844 21.4359 44.3384 20.3793 46.0648 19.6465C47.4018 19.0671 48.7728 19.016 50.1775 19.5102C50.6345 19.6636 50.9899 19.8681 51.2777 20.1407L51.4808 20.3282C51.7854 20.6009 52.0901 20.8905 52.3439 21.2143C53.2917 22.3731 53.6303 23.7194 53.3764 25.219C53.3256 25.5257 53.1733 25.7984 53.0548 26.037C52.9533 26.2074 52.8009 26.3096 52.5471 26.3608C52.4117 26.3948 52.2763 26.3437 52.1409 26.2585C52.0224 26.1733 51.87 25.9859 51.8531 25.7814C51.8362 25.5939 51.8193 25.4405 51.8362 25.3042C51.8362 25.1849 51.8362 25.0486 51.8531 24.9123C51.8531 24.7759 51.87 24.6396 51.87 24.5033C51.87 23.4297 51.3962 22.5606 50.4483 21.8789C49.7206 21.3336 48.9589 21.2314 48.045 21.5211C47.0633 21.8449 46.1832 22.4243 45.3539 23.2763C43.8307 24.8782 42.849 26.9061 42.3751 29.4963C42.2228 30.2802 42.2736 31.0982 42.3582 31.7969C42.3582 31.8651 42.3751 31.9162 42.392 31.9843C42.6459 33.092 43.3568 33.5692 44.4569 33.3647C45.0154 33.2624 45.5232 33.1091 45.9971 32.8705C47.0633 32.3763 48.1635 31.7117 49.3313 30.8426C49.9744 30.3654 50.3637 29.9564 50.6345 29.4622C50.9222 28.934 51.3115 28.5079 51.8023 28.1842C52.3101 27.8433 52.9363 27.9285 53.3595 28.3887C53.6641 28.7295 53.7657 29.1385 53.6303 29.5475C53.5118 29.9224 53.3595 30.3143 53.1902 30.7574C52.9871 31.2516 52.8179 31.7969 52.6824 32.4445C52.6486 32.5978 52.6655 32.7512 52.7502 32.9046C52.8517 33.1261 52.9871 33.1943 53.2071 33.1261C53.9518 32.9386 54.6796 32.5467 55.4751 31.9162C56.9306 30.7744 58.3185 29.4282 59.6217 27.9456C60.2987 27.1617 61.0265 26.4289 61.7373 25.6962L62.0251 25.4065C62.5159 24.1965 63.1083 23.0548 63.7007 21.9812C63.8699 21.6744 64.0899 21.3507 64.3777 20.9928C64.53 20.8053 64.7331 20.6179 64.97 20.4816C65.3762 20.243 65.8332 20.243 66.2733 20.4816C66.7302 20.7542 66.9841 21.2825 66.8995 21.7937C66.781 22.4413 66.6118 23.0037 66.3917 23.4978C65.8163 24.7759 65.3255 25.9347 64.8685 27.0594C64.3438 28.3205 63.8191 29.6838 63.4806 31.1152C63.4299 31.3197 63.396 31.5413 63.3622 31.7458C63.3452 31.831 63.3791 31.8821 63.396 31.8991C63.4129 31.9162 63.4468 31.9162 63.4976 31.8991L63.5653 31.8821C63.853 31.7798 64.1407 31.6776 64.3607 31.5242C65.3424 30.8767 66.0871 30.2291 66.6795 29.5134C67.7119 28.2353 68.5074 27.1447 69.1844 26.037C69.6413 25.3042 70.0475 24.5885 70.4368 23.8898C71.2661 22.339 72.0108 20.9076 72.7048 19.5443C72.9248 19.1183 73.1279 18.6752 73.3141 18.2321C73.4495 17.9424 73.568 17.6698 73.7034 17.3801C73.788 17.2097 73.8895 17.0733 73.9911 16.937L74.0419 16.8688C74.1434 16.7155 74.3465 16.6473 74.5496 16.6643C74.7527 16.6984 74.922 16.8177 74.9897 16.9881C75.0574 17.1415 75.1251 17.346 75.1251 17.5334C75.0235 17.6868 74.9558 17.8743 74.8881 18.0276ZM104.422 1.73629C104.405 1.46363 104.287 1.2421 104.084 1.10577C103.813 0.918316 103.356 0.986481 103.136 1.25914C103.018 1.39547 102.882 1.56588 102.764 1.75333L102.476 2.23049C102.053 2.96325 101.63 3.67898 101.207 4.41175C100.648 5.41718 100.208 6.2522 99.8187 7.03609C99.514 7.64957 99.2263 8.2801 98.9386 8.89358C98.8032 9.20032 98.6508 9.50706 98.5154 9.8138C98.4308 10.0013 98.3462 10.1887 98.2447 10.3762C98.0754 10.6999 97.9231 11.0408 97.7708 11.3816L97.1445 12.813C96.3998 14.5001 95.6382 16.2554 94.9104 17.9936C94.0134 20.1407 93.1502 22.322 92.3886 24.2477C92.1178 24.384 91.8301 24.5203 91.5593 24.6907C89.9175 25.7302 88.2927 26.7697 86.6679 27.8093C85.3308 28.6613 84.18 29.3089 83.046 29.8372C82.2166 30.2291 81.0996 30.7063 79.9148 30.9789C79.3563 31.0982 78.7639 31.1323 78.1039 31.0471C77.9346 31.03 77.7484 30.9448 77.5792 30.8596C77.5115 30.8255 77.393 30.7403 77.3761 30.587C77.3592 30.2973 77.3592 30.0076 77.3592 29.7008C77.3592 29.4111 77.4776 29.2578 77.7654 29.1385C77.85 29.1044 77.9515 29.0703 78.0362 29.0362C78.2054 28.9851 78.3577 28.9169 78.527 28.8658L78.8993 28.7124C79.3394 28.525 79.7794 28.3375 80.2026 28.116C81.235 27.5536 82.2505 26.8209 83.2829 25.8495C83.8076 25.3553 84.2477 24.7589 84.7046 24.1454C85.0939 23.6171 85.2632 23.0037 85.4155 22.4754C85.6863 21.487 85.0939 20.3452 84.1123 19.9533C83.486 19.6977 82.826 19.6295 82.1659 19.7488C80.0672 20.1067 78.3239 21.1973 76.9868 22.9866C76.2252 23.992 75.599 25.1168 75.0574 26.4289C74.4988 27.7752 74.2788 29.0362 74.3804 30.2632C74.4988 31.6606 75.1928 32.6319 76.4452 33.1602C77.0376 33.4158 77.6469 33.4158 78.4085 33.4158H78.5947C79.0855 33.4158 79.6779 33.2795 80.1179 33.1772C80.9473 32.9557 81.692 32.6319 82.3859 32.3081C83.3845 31.848 84.3492 31.2686 85.2801 30.7063L85.974 30.2802C87.9204 29.1214 89.6975 27.9797 91.3731 26.8379L90.3576 29.4452L87.7173 36.2958H91.2208L91.3054 36.0913C92.3547 33.3988 93.3364 30.7063 94.1488 28.4398C94.7073 26.9061 95.2489 25.3553 95.8074 23.8046L96.8907 20.7372C97.1615 19.9703 97.4323 19.2035 97.72 18.4537C98.4985 16.4258 99.2771 14.4149 100.073 12.4041L100.462 11.3986C101.02 9.95013 101.613 8.46755 102.307 7.05313C102.73 6.21812 103.102 5.33198 103.475 4.49696L103.542 4.34359C103.762 3.83235 103.999 3.28704 104.236 2.63947C104.304 2.46906 104.338 2.28161 104.372 2.12824L104.405 1.94079L104.422 1.73629ZM80.2364 23.8216C80.9473 22.9696 81.9628 22.5265 82.7921 22.2198L82.9444 22.2027C83.0629 22.1857 83.1475 22.1686 83.2152 22.1686C83.2999 22.1686 83.3506 22.1857 83.3845 22.2198C83.486 22.339 83.4522 22.4583 83.2999 22.8162C82.9952 23.4978 82.5382 24.1113 81.8951 24.7078C80.778 25.7473 79.5425 26.5653 78.2223 27.1276C78.6793 25.9688 79.3563 24.8611 80.2364 23.8216ZM81.3704 54.4616H84.2646L84.0615 54.9217C83.5707 56.0464 83.0629 57.1712 82.5551 58.2959C82.4028 58.6197 82.1997 58.9264 82.0135 59.2161L81.8951 59.4036C81.7428 59.6251 81.5227 59.7955 81.2181 59.9318C81.1165 59.983 80.998 60 80.8796 60C80.5241 60 80.1856 59.7955 80.0502 59.4547C79.9318 59.165 79.8979 58.8753 79.9656 58.5856C80.0333 58.2788 80.1349 57.921 80.2703 57.5631C80.6257 56.6088 80.9642 55.6375 81.3196 54.6832L81.3704 54.4616ZM44.6769 43.9984C44.6769 41.6637 42.1043 39.7551 38.9562 39.7551H34.6065C34.1665 39.7551 33.811 40.0448 33.811 40.4027V50.3888C33.811 50.7466 34.1665 51.0364 34.6065 51.0364C35.0466 51.0364 35.402 50.7466 35.402 50.3888V48.2586H38.9732C39.5655 48.2586 40.1579 48.1905 40.7334 48.0541L43.2721 50.7807C43.4245 50.9341 43.6614 51.0364 43.9153 51.0364C44.0676 51.0364 44.203 51.0023 44.3384 50.9341C44.5415 50.8319 44.6769 50.6785 44.7108 50.491C44.7446 50.3206 44.6938 50.1502 44.5584 50.0139L42.2397 47.5259C43.763 46.7079 44.6769 45.4128 44.6769 43.9984ZM38.9562 46.9635H35.3851V41.0332H38.9562C41.2411 41.0332 43.1029 42.3624 43.1029 43.9984C43.086 45.6343 41.2411 46.9635 38.9562 46.9635ZM56.1859 40.1641C56.0675 39.9085 55.7797 39.7551 55.4412 39.7551C55.1027 39.7551 54.815 39.9255 54.6965 40.1641L50.0591 50.1502C49.9914 50.3036 49.9914 50.457 50.0591 50.6103C50.1437 50.7978 50.3299 50.9341 50.5668 50.9852C50.6514 51.0023 50.7191 51.0193 50.8038 51.0193C51.1253 51.0193 51.43 50.8659 51.5485 50.6103L52.6486 48.2586H58.2677L59.3678 50.6103C59.5202 50.9171 59.9433 51.0875 60.3495 51.0023C60.5864 50.9511 60.7726 50.7978 60.8573 50.6274C60.9249 50.474 60.9249 50.3206 60.8573 50.1673L56.1859 40.1641ZM53.241 46.9635L55.4412 42.2261L57.6415 46.9635H53.241ZM76.7499 49.9968C76.8853 50.1332 76.936 50.3036 76.9022 50.474C76.8683 50.6614 76.7329 50.8319 76.5298 50.9341C76.4114 51.0023 76.259 51.0364 76.1067 51.0364C75.8528 51.0364 75.6159 50.9511 75.4636 50.7807L71.4523 46.4693L67.458 50.7637C67.2718 50.9682 66.9164 51.0534 66.6118 50.9852C66.2733 50.9 66.0363 50.6614 66.0363 50.3717V40.3856C66.0363 40.0278 66.3917 39.7381 66.8318 39.7381C67.2718 39.7381 67.6273 40.0278 67.6273 40.3856V48.4461L75.4974 39.9937C75.7344 39.7381 76.2083 39.6699 76.5468 39.8403C76.7499 39.9426 76.8853 40.0959 76.9191 40.3004C76.953 40.4708 76.9022 40.6412 76.7668 40.7776L72.4847 45.3787L76.7499 49.9968ZM107.943 40.7776L102.239 50.491C102.104 50.7296 101.765 50.883 101.393 50.883C101.003 50.883 100.682 50.7296 100.546 50.491L94.8427 40.7776C94.7581 40.6412 94.7581 40.4879 94.8089 40.3345C94.8935 40.13 95.1304 39.9766 95.4182 39.9255C95.8921 39.8403 96.366 39.9937 96.5352 40.2834L101.376 48.5483L106.216 40.2834C106.386 39.9937 106.876 39.8403 107.333 39.9255C107.638 39.9766 107.858 40.13 107.943 40.3345C108.027 40.4708 108.01 40.6412 107.943 40.7776ZM86.6172 38.9712C83.0968 38.9712 80.2364 41.8512 80.2364 45.3957C80.2364 48.9403 83.0968 51.8202 86.6172 51.8202C90.1376 51.8202 92.9979 48.9403 92.9979 45.3957C92.9979 41.8512 90.1206 38.9712 86.6172 38.9712ZM86.6172 50.2184C83.9769 50.2184 81.8104 48.0541 81.8104 45.3787C81.8104 42.7032 83.9599 40.539 86.6172 40.539C89.2744 40.539 91.4239 42.7032 91.4239 45.3787C91.4239 48.0541 89.2575 50.2184 86.6172 50.2184Z" fill="#141414"/>
</svg>
