<svg width="24" height="24" viewBox="0 0 24 24" fill="none" xmlns="http://www.w3.org/2000/svg">
<path fill-rule="evenodd" clip-rule="evenodd" d="M18.9913 3.39856C18.5841 2.91723 17.9856 2.63962 17.3552 2.63965L11.2325 2.6399C11.2324 2.6399 11.2324 2.63986 11.2324 2.63981C11.2324 2.63977 11.2323 2.63973 11.2323 2.63973H8.2168H6.48828H2.20759C1.49751 2.63973 0.921875 3.21536 0.921875 3.92544V20.1286C0.921875 20.8387 1.49751 21.4143 2.20759 21.4143H7.10251C7.81259 21.4143 8.38822 20.8387 8.38822 20.1286V5.04775C8.38822 4.52361 8.81313 4.09871 9.33727 4.09871C9.61494 4.09871 9.87869 4.22031 10.059 4.43147L15.4176 10.7068C15.7978 11.1521 15.8292 11.7979 15.4939 12.2779L12.4244 16.6728C11.9791 17.3104 12.0188 18.1678 12.521 18.7616L14.1231 20.6555C14.5303 21.1368 15.1288 21.4144 15.7592 21.4144L22.7262 21.4141C23.4577 21.4141 23.853 20.5567 23.378 20.0004L17.6968 13.3472C17.3166 12.902 17.2852 12.2561 17.6205 11.7761L20.69 7.38121C21.1353 6.74364 21.0956 5.88621 20.5934 5.29247L18.9913 3.39856Z" fill="black"/>
</svg>
