<svg width="24" height="24" viewBox="0 0 24 24" fill="none" xmlns="http://www.w3.org/2000/svg">
<g id="logo/sliders">
<path id="f-t" fill-rule="evenodd" clip-rule="evenodd" d="M4 2C4.55228 2 5 2.44772 5 3V6C5 6.55228 4.55228 7 4 7C3.44772 7 3 6.55228 3 6V3C3 2.44772 3.44772 2 4 2Z" fill="white"/>
<path id="s-b" fill-rule="evenodd" clip-rule="evenodd" d="M12 17C12.5523 17 13 17.4477 13 18L13 21C13 21.5523 12.5523 22 12 22C11.4477 22 11 21.5523 11 21L11 18C11 17.4477 11.4477 17 12 17Z" fill="white"/>
<path id="t-t" fill-rule="evenodd" clip-rule="evenodd" d="M20 2C20.5523 2 21 2.44772 21 3V8C21 8.55229 20.5523 9 20 9C19.4477 9 19 8.55229 19 8V3C19 2.44772 19.4477 2 20 2Z" fill="white"/>
<g id="f-b">
<path id="Vector (Stroke)" fill-rule="evenodd" clip-rule="evenodd" d="M4 9C4.55228 9 5 9.44772 5 10L5 21C5 21.5523 4.55229 22 4 22C3.44772 22 3 21.5523 3 21L3 10C3 9.44772 3.44772 9 4 9Z" fill="white"/>
<path id="Vector (Stroke)_2" fill-rule="evenodd" clip-rule="evenodd" d="M1 10C1 9.44772 1.44772 9 2 9L6 9C6.55228 9 7 9.44772 7 10C7 10.5523 6.55228 11 6 11L2 11C1.44772 11 1 10.5523 1 10Z" fill="white"/>
</g>
<g id="s-t">
<path id="Vector (Stroke)_3" fill-rule="evenodd" clip-rule="evenodd" d="M12 2C12.5523 2 13 2.44772 13 3V14C13 14.5523 12.5523 15 12 15C11.4477 15 11 14.5523 11 14V3C11 2.44772 11.4477 2 12 2Z" fill="white"/>
<path id="Vector (Stroke)_4" fill-rule="evenodd" clip-rule="evenodd" d="M9 14C9 13.4477 9.44772 13 10 13L14 13C14.5523 13 15 13.4477 15 14C15 14.5523 14.5523 15 14 15L10 15C9.44772 15 9 14.5523 9 14Z" fill="white"/>
</g>
<g id="t-b">
<path id="Vector (Stroke)_5" fill-rule="evenodd" clip-rule="evenodd" d="M20 11C20.5523 11 21 11.4477 21 12L21 21C21 21.5523 20.5523 22 20 22C19.4477 22 19 21.5523 19 21L19 12C19 11.4477 19.4477 11 20 11Z" fill="white"/>
<path id="Vector (Stroke)_6" fill-rule="evenodd" clip-rule="evenodd" d="M17 12C17 11.4477 17.4477 11 18 11L22 11C22.5523 11 23 11.4477 23 12C23 12.5523 22.5523 13 22 13L18 13C17.4477 13 17 12.5523 17 12Z" fill="white"/>
</g>
</g>
</svg>
