<svg width="52" height="52" viewBox="0 0 52 52" fill="none" xmlns="http://www.w3.org/2000/svg">
<rect x="1" y="0.999512" width="50" height="50" rx="25" fill="black"/>
<rect x="1" y="0.999512" width="50" height="50" rx="25" stroke="white" stroke-width="2"/>
<path d="M17 31.1494C18.2727 32.3701 20.0822 32.9995 21.8322 32.9995C24.8547 32.9995 26.5251 31.1875 26.5251 28.9941C26.5251 24.6834 19.943 25.3319 19.943 22.8142C19.943 21.8796 20.7981 21.2693 22.0907 21.2693C23.2042 21.2693 24.4173 21.7843 25.1928 22.4518L26.3263 20.4491C25.2127 19.4764 23.6616 18.9995 22.1901 18.9995C19.4459 18.9995 17.3778 20.5445 17.3778 22.9287C17.3778 27.1439 23.9599 26.6099 23.9599 29.1848C23.9599 30.1003 23.1645 30.7298 21.8918 30.7298C20.5794 30.7298 19.2272 30.024 18.392 29.2992L17 31.1494Z" fill="white"/>
<path d="M29.0088 29.2039C29.0088 32.4655 31.8126 32.866 33.2245 32.866C33.5625 32.866 33.8011 32.8278 34 32.8088V30.6916C33.8011 30.7298 33.6818 30.7298 33.5426 30.7298C32.8466 30.7298 31.5342 30.5009 31.5342 28.8987V25.1031H33.8409V23.1766H31.5342V20.3919H29.0684V23.1766H27.6963V25.1031H29.0088V29.2039Z" fill="white"/>
</svg>
