<svg width="27" height="26" viewBox="0 0 27 26" fill="none" xmlns="http://www.w3.org/2000/svg">
<path fill-rule="evenodd" clip-rule="evenodd" d="M2.62548 12.6481C9.03997 9.84219 13.3277 8.02863 15.4545 7.13896C21.5602 4.60682 22.8294 4.16199 23.6527 4.16199C23.8242 4.16199 24.2358 4.19621 24.5102 4.40151C24.716 4.5726 24.7846 4.81213 24.8189 4.98322C24.8532 5.15431 24.8875 5.53071 24.8532 5.83867C24.5102 9.2947 23.1038 17.7466 22.3492 21.6132C22.0405 23.2557 21.423 23.8032 20.8399 23.8716C19.5707 23.9743 18.5759 23.0162 17.3411 22.2291C15.4202 20.9631 14.3225 20.1761 12.4359 18.9442C10.2748 17.507 11.6812 16.72 12.9161 15.454C13.2248 15.1118 18.8847 10.0133 18.9876 9.53423C18.9876 9.46579 19.0219 9.26048 18.8847 9.15783C18.7475 9.05517 18.5759 9.08939 18.4387 9.12361C18.2329 9.15783 15.1457 11.2109 9.14288 15.2486C8.25102 15.8646 7.46207 16.1383 6.74173 16.1383C5.95278 16.1383 4.44349 15.6935 3.31152 15.3171C1.93944 14.8723 0.841772 14.6327 0.944678 13.8799C1.04758 13.4693 1.59642 13.0587 2.62548 12.6481Z" fill="#141414"/>
</svg>
