<svg width="172" height="60" viewBox="0 0 172 60" fill="none" xmlns="http://www.w3.org/2000/svg">
<path fill-rule="evenodd" clip-rule="evenodd" d="M4.20919 24.3449L5.08929 19.4072L14.4643 16.5127L13.0293 24.3449H17.0281L15.9375 30.134H11.9388L10.8865 35.8852C10.81 36.1879 10.7908 36.4906 10.7908 36.8122C10.7908 37.9662 11.4605 38.5527 12.398 38.5527C12.8954 38.5527 13.4885 38.4392 14.4643 38.1743L13.3737 43.9633C12.264 44.3985 10.3508 45.0038 7.80613 45.0038C4.30485 45.0038 1.53061 43.585 1.53061 39.9526C1.53061 38.9878 1.62628 38.0986 1.8176 37.1338L3.11862 30.115H0V30.0961L1.09056 24.326H4.20919V24.3449Z" fill="#141414"/>
<path fill-rule="evenodd" clip-rule="evenodd" d="M37.5384 32.4806C37.5384 38.9885 32.5256 45.0046 24.1264 45.0046C15.3636 45.0046 14.2539 39.4236 14.2539 36.7183C14.2539 30.3617 18.7692 23.8916 27.7807 23.8916C35.032 23.8916 37.5384 28.1861 37.5384 32.4806ZM24.8343 31.2887C24.2794 32.5184 23.648 35.7156 23.648 37.3426C23.648 38.8939 24.3751 39.2344 24.9491 39.2344C26.3075 39.2344 26.9006 37.9291 27.2259 36.9264C27.685 35.5454 28.1825 33.313 28.1825 31.6103C28.1825 31.0238 28.106 29.6806 26.8049 29.6806C25.6378 29.6617 25.0639 30.7401 24.8343 31.2887Z" fill="#141414"/>
<path fill-rule="evenodd" clip-rule="evenodd" d="M47.0628 27.8459H47.1968C48.7082 25.4054 51.1189 23.873 54.3332 23.873C55.6534 23.873 58.1215 24.2514 59.2312 26.9567C61.2593 24.3271 63.7848 23.873 65.258 23.873C68.5871 23.873 70.1942 25.4054 70.7682 26.9946C71.0169 27.6189 71.0743 28.3567 71.0743 28.9999C71.0743 30.154 70.8065 31.2323 70.596 32.4242L68.3575 44.532H59.5182L61.661 32.8971C61.7376 32.4809 61.795 32.0836 61.795 31.6674C61.795 30.4756 61.0871 30.1729 60.5322 30.1729C59.1738 30.1729 58.7337 31.7431 58.5424 32.9161L56.3996 44.532H47.5794L49.7031 32.8971C49.7797 32.4809 49.8562 32.0836 49.8562 31.6674C49.8562 31.1756 49.7414 30.1729 48.7082 30.1729C47.3498 30.1729 46.8524 31.5161 46.6036 32.9161L44.4608 44.532H35.6406L39.3906 24.346H47.7325L47.0628 27.8459Z" fill="#141414"/>
<path fill-rule="evenodd" clip-rule="evenodd" d="M78.5971 30.1158H75.3828L76.4734 24.3268H79.6877L80.0129 22.6241C80.4338 20.4296 81.7923 15 89.1966 15C91.9708 15 93.6736 15.4919 94.2859 15.7L93.2718 21.0728C92.6022 20.8458 91.9326 20.808 91.5499 20.808C90.0193 20.808 88.9287 21.8106 88.68 23.3052L88.5078 24.3457H92.2578L91.1673 30.1347H87.4364L84.7578 44.5317H75.9377L78.5971 30.1158Z" fill="#141414"/>
<path fill-rule="evenodd" clip-rule="evenodd" d="M100.256 42.0712H100.103C98.2468 44.3414 96.0466 45.0036 93.3489 45.0036C92.3348 45.0036 87.7812 44.9279 87.7812 40.028C87.7812 38.2119 88.3361 35.9795 90.6894 34.1633C93.1384 32.2715 96.0848 31.8931 100.849 31.8931H102.15L102.265 31.2688C102.303 31.1175 102.303 31.004 102.303 30.8526C102.303 29.8499 101.576 28.8094 98.5912 28.8094C96.6971 28.8094 93.7889 29.5094 91.7608 30.3986L92.7366 25.1203C97.1563 23.8906 100.791 23.8906 101.576 23.8906C109.248 23.8906 110.434 27.6743 110.434 30.0202C110.434 30.5499 110.358 31.0985 110.262 31.6661L107.851 44.5306H99.7966L100.256 42.0712ZM100.945 35.7525C99.8157 35.7525 98.7825 35.7146 97.7876 36.2633C96.7736 36.8308 96.4292 37.7578 96.4292 38.5335C96.4292 39.6118 97.2711 40.028 98.1512 40.028C99.6244 40.028 100.772 39.101 101.193 36.8687L101.404 35.7525H100.945Z" fill="#141414"/>
<path fill-rule="evenodd" clip-rule="evenodd" d="M120.574 24.346L119.693 28.9243H119.827C120.956 26.5216 123.233 23.873 126.313 23.873C126.868 23.873 127.366 23.9866 127.71 24.0622L126.199 32.1593C125.797 32.0458 125.127 31.8566 124.285 31.8566C121.339 31.8566 119.311 34.2403 118.756 37.2105L117.378 44.532H108.539L112.308 24.346H120.574Z" fill="#141414"/>
<path fill-rule="evenodd" clip-rule="evenodd" d="M136.57 24.3463L135.69 28.9245H135.824C136.953 26.5219 139.229 23.8733 142.31 23.8733C142.865 23.8733 143.362 23.9868 143.706 24.0625L142.214 32.1596C141.793 32.0461 141.124 31.8569 140.282 31.8569C137.335 31.8569 135.307 34.2406 134.752 37.2108L133.394 44.5322H124.555L128.305 24.3273H136.57V24.3463Z" fill="#141414"/>
</svg>
