<svg width="172" height="60" viewBox="0 0 172 60" fill="none" xmlns="http://www.w3.org/2000/svg">
<path d="M119.203 21.5V15.4394C117.132 14.5145 114.837 14 112.42 14C103.263 14 95.8403 21.3873 95.8403 30.5C95.8403 35.265 97.8699 39.5582 101.116 42.5702V39.5C101.116 34.8366 103.967 30.8359 108.029 29.1302L102.623 23.75L105.82 20.568L113.46 28.1711C116.712 27.673 119.203 24.8759 119.203 21.5Z" fill="#141414"/>
<path d="M123.725 21.5V18.4298C126.97 21.4418 129 25.735 129 30.5C129 39.6127 121.577 47 112.42 47C110.004 47 107.708 46.4855 105.638 45.5606V39.5C105.638 36.0128 108.295 33.1433 111.704 32.7872L119.676 40.7206L122.873 37.5386L117.066 31.7592C120.992 29.9956 123.725 26.0654 123.725 21.5Z" fill="#141414"/>
<path fill-rule="evenodd" clip-rule="evenodd" d="M52.9115 42.4191C55.6052 42.4191 57.2076 40.9285 57.9274 39.2877H58.1016V42.1649H63.7213V18.5H58.0435V27.4552H57.9274C57.254 25.826 55.6981 24.1851 52.8882 24.1851C49.1611 24.1851 45.7823 27.0392 45.7823 33.3021C45.7823 39.3455 48.9753 42.4191 52.9115 42.4191ZM54.8853 38.0166C52.7837 38.0166 51.611 36.1562 51.611 33.2906C51.611 30.4364 52.7721 28.5992 54.8853 28.5992C56.9637 28.5992 58.1713 30.3902 58.1713 33.2906C58.1713 36.1678 56.9521 38.0166 54.8853 38.0166Z" fill="#141414"/>
<path d="M11.2511 24.4162H8.03483V20.1639H2.35704V24.4162H0V28.5761H2.35704V37.2078C2.32221 40.8014 4.66763 42.604 8.67344 42.4191C10.0435 42.3498 11.0305 42.0725 11.5762 41.9107L10.717 37.8317C10.4732 37.8895 9.90421 38.0051 9.4746 38.0051C8.55733 38.0051 8.03483 37.6353 8.03483 36.5838V28.5761H11.2511V24.4162Z" fill="#141414"/>
<path d="M14.148 42.1649H19.8258V32.5279C19.8258 30.4133 21.3353 28.9921 23.3672 28.9921C24.0406 28.9921 25.0508 29.1076 25.5965 29.2925V24.3816C25.1205 24.2545 24.5283 24.1736 24.0058 24.1736C22.0552 24.1736 20.4993 25.306 19.8491 27.6517H19.6633V24.4162H14.148V42.1649Z" fill="#141414"/>
<path fill-rule="evenodd" clip-rule="evenodd" d="M37.4456 39.6921C36.4702 41.5063 34.7518 42.4653 32.2671 42.4653C28.8534 42.4653 26.4035 40.7552 26.4035 37.2424C26.4035 33.3137 29.4224 31.9848 33.0334 31.6844C36.0755 31.4186 37.2598 31.1875 37.2598 30.1013V30.0436C37.2598 28.8534 36.3774 28.1832 34.984 28.1832C33.4862 28.1832 32.5457 28.8765 32.3019 30.0089L27.0653 29.824C27.5181 26.5886 30.2351 24.1851 35.0305 24.1851C39.5704 24.1851 42.926 26.3459 42.926 30.1013V42.1649H37.5849V39.6921H37.4456ZM31.7794 36.9651C31.7794 38.1437 32.7083 38.7677 34.0203 38.7677C35.8316 38.7677 37.2946 37.5891 37.2946 35.8558V34.1688C36.656 34.5039 35.3556 34.735 34.299 34.8852C32.6851 35.1278 31.7794 35.8211 31.7794 36.9651Z" fill="#141414"/>
<path fill-rule="evenodd" clip-rule="evenodd" d="M84.0552 36.7571C83.4049 40.2467 80.328 42.5 75.6488 42.5C70.0406 42.5 66.627 39.045 66.627 33.3599C66.627 27.8597 70.0871 24.1851 75.4746 24.1851C80.537 24.1851 84.1132 27.3974 84.1132 33.2443V34.6541H72.2235V34.8043C72.2235 36.9766 73.5704 38.421 75.7533 38.421C77.2395 38.421 78.4006 37.7855 78.8418 36.6069L84.0552 36.7571ZM75.5907 28.2641C73.7097 28.2641 72.3048 29.6045 72.2235 31.3724H78.8302C78.807 29.5583 77.4601 28.2641 75.5907 28.2641Z" fill="#141414"/>
</svg>
