<svg width="52" height="52" viewBox="0 0 52 52" fill="none" xmlns="http://www.w3.org/2000/svg">
<rect x="1" y="1" width="50" height="50" rx="25" fill="#AD9058"/>
<rect x="1" y="1" width="50" height="50" rx="25" stroke="#F5F5F5" stroke-width="2"/>
<path d="M26.1367 19.3615H28.9045V27.8629C28.9045 28.8174 28.6765 29.6526 28.2205 30.3686C27.7688 31.0845 27.136 31.6427 26.3221 32.0433C25.5082 32.4396 24.56 32.6377 23.4776 32.6377C22.391 32.6377 21.4407 32.4396 20.6268 32.0433C19.8129 31.6427 19.18 31.0845 18.7283 30.3686C18.2766 29.6526 18.0508 28.8174 18.0508 27.8629V19.3615H20.8185V27.6264C20.8185 28.1249 20.9272 28.5681 21.1445 28.9559C21.3661 29.3437 21.6772 29.6484 22.0778 29.87C22.4783 30.0916 22.945 30.2024 23.4776 30.2024C24.0146 30.2024 24.4812 30.0916 24.8775 29.87C25.2781 29.6484 25.587 29.3437 25.8043 28.9559C26.0259 28.5681 26.1367 28.1249 26.1367 27.6264V19.3615Z" fill="white"/>
<path d="M33.9494 19.3615V32.4524H31.1816V19.3615H33.9494Z" fill="white"/>
</svg>
