<svg width="28" height="28" viewBox="0 0 28 28" fill="none" xmlns="http://www.w3.org/2000/svg">
<path d="M18.0827 8.74984C18.0827 11.005 16.2545 12.8332 13.9994 12.8332C11.7442 12.8332 9.91602 11.005 9.91602 8.74984C9.91602 6.49468 11.7442 4.6665 13.9994 4.6665C16.2545 4.6665 18.0827 6.49468 18.0827 8.74984Z" fill="#1E1E1E"/>
<path d="M21 19.2498C21 21.505 17.866 23.3332 14 23.3332C10.134 23.3332 7 21.505 7 19.2498C7 16.9947 10.134 15.1665 14 15.1665C17.866 15.1665 21 16.9947 21 19.2498Z" fill="#1E1E1E"/>
<path d="M8.30971 5.8335C8.51675 5.8335 8.71887 5.85381 8.91405 5.89249C8.43856 6.73703 8.16732 7.71192 8.16732 8.75016C8.16732 9.76313 8.42551 10.7158 8.87968 11.5459C8.69517 11.5803 8.50462 11.5983 8.30971 11.5983C6.65956 11.5983 5.32185 10.3078 5.32185 8.7159C5.32185 7.12399 6.65956 5.8335 8.30971 5.8335Z" fill="#1E1E1E"/>
<path d="M6.35588 22.1505C5.69331 21.3584 5.25065 20.3865 5.25065 19.2502C5.25065 18.1485 5.66665 17.2015 6.29573 16.423C4.0736 16.5954 2.33398 17.8107 2.33398 19.2844C2.33398 20.772 4.10417 21.9963 6.35588 22.1505Z" fill="#1E1E1E"/>
<path d="M19.8327 8.75016C19.8327 9.76313 19.5745 10.7158 19.1203 11.5459C19.3048 11.5803 19.4954 11.5983 19.6903 11.5983C21.3404 11.5983 22.6781 10.3078 22.6781 8.7159C22.6781 7.12399 21.3404 5.8335 19.6903 5.8335C19.4832 5.8335 19.2811 5.85381 19.0859 5.89249C19.5614 6.73703 19.8327 7.71192 19.8327 8.75016Z" fill="#1E1E1E"/>
<path d="M21.6441 22.1505C23.8958 21.9963 25.666 20.772 25.666 19.2844C25.666 17.8107 23.9264 16.5954 21.7043 16.423C22.3333 17.2015 22.7493 18.1485 22.7493 19.2502C22.7493 20.3865 22.3067 21.3584 21.6441 22.1505Z" fill="#1E1E1E"/>
</svg>
