<svg width="16" height="16" viewBox="0 0 16 16" fill="none" xmlns="http://www.w3.org/2000/svg">
<g clip-path="url(#clip0_4657_5607)">
<path fill-rule="evenodd" clip-rule="evenodd" d="M14.1394 4.32128L14.1396 4.32208C14.2661 4.8276 14.3443 5.70678 14.385 6.54965C14.4045 6.95226 14.4143 7.31716 14.4192 7.58148C14.4216 7.71336 14.4228 7.81951 14.4234 7.89198C14.4237 7.92819 14.4239 7.95595 14.4239 7.97424L14.424 7.99445L14.424 7.99899L14.424 7.99982L14.424 8.00493L14.4239 8.02514C14.4239 8.04343 14.4237 8.07119 14.4234 8.1074C14.4228 8.17987 14.4216 8.28601 14.4192 8.4179C14.4143 8.68222 14.4045 9.04711 14.385 9.44972C14.3443 10.2926 14.2661 11.1718 14.1396 11.6774L14.1394 11.6781C14.0676 11.9659 13.8704 12.1383 13.6942 12.1888L13.6935 12.189C13.538 12.2336 13.1356 12.2924 12.5 12.3421C11.9041 12.3886 11.2071 12.4204 10.5345 12.4418C9.86412 12.4631 9.22937 12.4738 8.76148 12.4792C8.52782 12.4819 8.33646 12.4832 8.2039 12.4839C8.13764 12.4842 8.08611 12.4844 8.05139 12.4845H7.94814C7.91342 12.4844 7.86189 12.4842 7.79563 12.4839C7.66307 12.4832 7.47171 12.4819 7.23805 12.4792C6.77016 12.4738 6.13541 12.4631 5.46507 12.4418C4.79245 12.4204 4.09544 12.3886 3.49956 12.3421C2.86398 12.2924 2.46149 12.2336 2.30597 12.189L2.3053 12.1888C2.12914 12.1383 1.93184 11.9658 1.86008 11.6782L1.8599 11.6774C1.73346 11.1718 1.65524 10.2926 1.61449 9.44973C1.59503 9.04712 1.58525 8.68222 1.58036 8.4179C1.57792 8.28602 1.57671 8.17987 1.57611 8.1074C1.57581 8.07119 1.57566 8.04343 1.57559 8.02514L1.57553 8.00493L1.57552 8.00039L1.57552 7.99956L1.57553 7.99445L1.57559 7.97424C1.57566 7.95595 1.57581 7.92819 1.57611 7.89197C1.57671 7.81951 1.57792 7.71336 1.58036 7.58148C1.58525 7.31715 1.59503 6.95226 1.61449 6.54965C1.65524 5.70677 1.73346 4.82759 1.85989 4.32206L1.86009 4.32125C1.93187 4.03349 2.12916 3.86112 2.30515 3.81072L2.30605 3.81046C2.46154 3.76582 2.864 3.70703 3.49958 3.65735C4.09545 3.61077 4.79246 3.579 5.46508 3.55759C6.13542 3.53625 6.77017 3.52554 7.23805 3.52018C7.47171 3.5175 7.66307 3.51617 7.79563 3.5155C7.86189 3.51517 7.91342 3.51501 7.94814 3.51492H8.05139C8.08611 3.51501 8.13764 3.51517 8.2039 3.5155C8.33646 3.51617 8.52782 3.5175 8.76148 3.52018C9.22937 3.52554 9.86412 3.53625 10.5345 3.55759C11.2071 3.579 11.9041 3.61077 12.5 3.65735C13.1355 3.70703 13.538 3.76582 13.6935 3.81046L13.6944 3.81073C13.8703 3.86111 14.0676 4.03342 14.1394 4.32128ZM7.99976 2.18151C7.99976 2.18151 3.14804 2.18151 1.93809 2.52891C1.27056 2.72007 0.744804 3.2833 0.566395 3.99856C0.242188 5.29492 0.242188 7.99969 0.242188 7.99969C0.242188 7.99969 0.242188 10.7044 0.566395 12.0009C0.744804 12.7161 1.27056 13.2793 1.93809 13.4705C3.14804 13.8179 7.99976 13.8179 7.99976 13.8179C7.99976 13.8179 12.8515 13.8179 14.0614 13.4705C14.729 13.2793 15.2547 12.7161 15.4331 12.0009C15.7573 10.7044 15.7573 7.99969 15.7573 7.99969C15.7573 7.99969 15.7573 5.29492 15.4331 3.99856C15.2547 3.2833 14.729 2.72007 14.0614 2.52891C12.8515 2.18151 7.99976 2.18151 7.99976 2.18151Z" fill="black"/>
</g>
<path d="M6.41211 9.53945C6.41211 9.92901 6.83788 10.1689 7.1711 9.96714L9.76096 8.39883C10.0823 8.20424 10.0823 7.73805 9.76098 7.54345L7.17112 5.97499C6.8379 5.77319 6.41211 6.01311 6.41211 6.40268V9.53945Z" fill="black"/>
<defs>
<clipPath id="clip0_4657_5607">
<rect width="15.5152" height="11.6364" fill="white" transform="translate(0.242188 2.18164)"/>
</clipPath>
</defs>
</svg>
