<svg width="22" height="16" viewBox="0 0 22 16" fill="none" xmlns="http://www.w3.org/2000/svg">
<g clip-path="url(#clip0_2354_4907)">
<path d="M21.2195 2.49845C20.9742 1.51497 20.2514 0.740517 19.3335 0.477678C17.6698 9.53674e-07 10.9987 0 10.9987 0C10.9987 0 4.32758 9.53674e-07 2.6639 0.477678C1.74604 0.740517 1.02313 1.51497 0.777817 2.49845C0.332031 4.28094 0.332031 8 0.332031 8C0.332031 8 0.332031 11.719 0.777817 13.5017C1.02313 14.485 1.74604 15.2595 2.6639 15.5224C4.32758 16 10.9987 16 10.9987 16C10.9987 16 17.6698 16 19.3335 15.5224C20.2514 15.2595 20.9742 14.485 21.2195 13.5017C21.6654 11.719 21.6654 8 21.6654 8C21.6654 8 21.6654 4.28094 21.2195 2.49845Z" fill="#ED1D24"/>
<path d="M8.81641 11.3767L14.3922 8.00026L8.81641 4.62348V11.3767Z" fill="white"/>
</g>
<defs>
<clipPath id="clip0_2354_4907">
<rect width="21.3333" height="16" fill="white" transform="translate(0.332031)"/>
</clipPath>
</defs>
</svg>
