<svg width="24" height="24" viewBox="0 0 24 24" fill="none" xmlns="http://www.w3.org/2000/svg">
<g clip-path="url(#clip0_3228_7922)">
<path fill-rule="evenodd" clip-rule="evenodd" d="M21.0912 3.79385C22.0926 4.08059 22.881 4.92544 23.1487 5.99833C23.635 7.94287 23.635 12 23.635 12C23.635 12 23.635 16.0571 23.1487 18.0018C22.881 19.0746 22.0926 19.9195 21.0912 20.2063C19.2763 20.7273 11.9987 20.7273 11.9987 20.7273C11.9987 20.7273 4.72109 20.7273 2.90616 20.2063C1.90486 19.9195 1.11623 19.0746 0.848616 18.0018C0.362305 16.0571 0.362305 12 0.362305 12C0.362305 12 0.362305 7.94287 0.848616 5.99833C1.11623 4.92544 1.90486 4.08059 2.90616 3.79385C4.72109 3.27275 11.9987 3.27275 11.9987 3.27275C11.9987 3.27275 19.2763 3.27275 21.0912 3.79385ZM15.7006 12.0003L9.61799 15.6837V8.31655L15.7006 12.0003Z" fill="white"/>
</g>
<defs>
<clipPath id="clip0_3228_7922">
<rect width="23.2727" height="17.4545" fill="white" transform="translate(0.362305 3.27271)"/>
</clipPath>
</defs>
</svg>
