<svg width="48" height="11" viewBox="0 0 48 11" fill="none" xmlns="http://www.w3.org/2000/svg">
<g clip-path="url(#clip0_3820_12723)">
<path d="M10.0655 10.8308H1.5308C0.964613 10.8308 0.440367 10.5346 0.167759 10.0269C-0.125819 9.43462 -0.0209699 8.73654 0.440367 8.29231L6.37484 2.30577H2.11796C0.943644 2.30577 0 1.33269 0 0.169231H7.8637C8.42988 0.169231 8.95413 0.465385 9.22674 0.973077C9.52032 1.56538 9.41547 2.26346 8.95413 2.70769L3.01966 8.69423H7.94758C9.12189 8.69423 10.0655 9.66731 10.0655 10.8308ZM43.8689 0C42.6527 0 41.5413 0.528846 40.7864 1.39615C40.0315 0.55 38.9201 0 37.7038 0C35.4391 0 33.5727 1.94615 33.5727 4.23077V10.8308C34.7471 10.8308 35.6907 9.87885 35.6907 8.69423V4.20962C35.6907 3.10962 36.5295 2.17885 37.6199 2.13654C38.7733 2.09423 39.7169 3.025 39.7169 4.16731V8.69423C39.7169 9.87885 40.6606 10.8308 41.8349 10.8308V4.20962C41.8349 3.10962 42.6737 2.17885 43.7641 2.13654C44.9174 2.09423 45.8611 3.025 45.8611 4.16731V8.69423C45.8611 9.87885 46.8047 10.8308 47.979 10.8308V4.23077C48 1.94615 46.1337 0 43.8689 0ZM20.7602 5.5C20.7602 8.525 18.3067 11 15.308 11C12.2883 11 9.85583 8.525 9.85583 5.5C9.85583 2.475 12.3093 0 15.308 0C18.3067 0 20.7602 2.475 20.7602 5.5ZM18.6422 5.5C18.6422 3.63846 17.1533 2.13654 15.308 2.13654C13.4626 2.13654 11.9738 3.63846 11.9738 5.5C11.9738 7.36154 13.4626 8.86346 15.308 8.86346C17.1533 8.86346 18.6422 7.36154 18.6422 5.5ZM32.5243 5.5C32.5243 8.525 30.0708 11 27.0721 11C24.0524 11 21.6199 8.525 21.6199 5.5C21.6199 2.475 24.0734 0 27.0721 0C30.0708 0 32.5243 2.475 32.5243 5.5ZM30.4063 5.5C30.4063 3.63846 28.9174 2.13654 27.0721 2.13654C25.2267 2.13654 23.7379 3.63846 23.7379 5.5C23.7379 7.36154 25.2267 8.86346 27.0721 8.86346C28.9174 8.86346 30.4063 7.36154 30.4063 5.5Z" fill="#0B5CFF"/>
</g>
<defs>
<clipPath id="clip0_3820_12723">
<rect width="48" height="11" fill="white"/>
</clipPath>
</defs>
</svg>
