<svg width="70" height="70" viewBox="0 0 70 70" fill="none" xmlns="http://www.w3.org/2000/svg">
<circle cx="35" cy="35" r="33.5" fill="white" stroke="#F5F5F5" stroke-width="3"/>
<path d="M21.7363 22.0117H46.3799V47.9882H44.0103V24.0851H24.017V47.9882H21.7363V22.0117ZM23.01 44.7004H45.4913V46.7441H23.01V44.7004ZM25.9719 29.0908H42.322V31.0753H25.9719V29.0908ZM35.5687 25.3291H37.7013V40.5536C37.7013 41.6792 37.494 42.2716 36.6646 42.5974C35.8945 42.9528 34.7097 42.9824 32.8141 42.9824C32.6956 42.4197 32.3698 41.5311 32.0736 40.9683C33.4361 41.0275 34.6801 41.0275 35.0652 40.9979C35.4502 40.9979 35.5687 40.8794 35.5687 40.5536V25.3291ZM35.6576 29.8313L37.5236 31.0753C34.9467 34.9555 30.7703 38.421 26.9494 40.5832C26.6828 40.1686 26.0312 39.4873 25.5276 39.1023C29.2597 37.0289 33.3472 33.593 35.6576 29.8313Z" fill="url(#paint0_linear_4236_10212)"/>
<path d="M21.7363 22.0117H46.3799V47.9882H44.0103V24.0851H24.017V47.9882H21.7363V22.0117ZM23.01 44.7004H45.4913V46.7441H23.01V44.7004ZM25.9719 29.0908H42.322V31.0753H25.9719V29.0908ZM35.5687 25.3291H37.7013V40.5536C37.7013 41.6792 37.494 42.2716 36.6646 42.5974C35.8945 42.9528 34.7097 42.9824 32.8141 42.9824C32.6956 42.4197 32.3698 41.5311 32.0736 40.9683C33.4361 41.0275 34.6801 41.0275 35.0652 40.9979C35.4502 40.9979 35.5687 40.8794 35.5687 40.5536V25.3291ZM35.6576 29.8313L37.5236 31.0753C34.9467 34.9555 30.7703 38.421 26.9494 40.5832C26.6828 40.1686 26.0312 39.4873 25.5276 39.1023C29.2597 37.0289 33.3472 33.593 35.6576 29.8313Z" fill="#141414"/>
<defs>
<linearGradient id="paint0_linear_4236_10212" x1="19.7495" y1="25.1165" x2="36.7825" y2="25.6121" gradientUnits="userSpaceOnUse">
<stop stop-color="#D0A4FD"/>
<stop offset="1" stop-color="#EEF6BA"/>
</linearGradient>
</defs>
</svg>
